<svg viewBox="0 0 52.456 60" xmlns="http://www.w3.org/2000/svg"><defs><clipPath id="a"><path transform="translate(650 51)" data-name="Rectangle 4" fill="#bfbfbf" stroke="#707070" d="M0 0h210v60H0z"/></clipPath></defs><g transform="translate(-728.77 -51)" clip-path="url(#a)" data-name="Mask Group 3"><path d="M728.778 52.986l3.9 49.818a1.842 1.842 0 001.28 1.613l20.491 6.5a1.842 1.842 0 001.114 0l20.491-6.5a1.842 1.842 0 001.28-1.613l3.889-49.818A1.842 1.842 0 00779.387 51H730.62a1.842 1.842 0 00-1.842 1.986zm42.46 15.457h-25.379l.766 7.063h24.06l-1.574 20.134-14.109 4.474-14.11-4.474-.822-10.518h7.4v5.16l7.724 2.073 7.678-2.073.6-8.224h-23.64l-1.57-20.082h33.482z" data-name="html-5 c" fill="#fc490b"/></g></svg>