<svg viewBox="0 0 44.25 60" xmlns="http://www.w3.org/2000/svg"><defs><clipPath id="a"><path transform="translate(650 131)" data-name="Rectangle 4" fill="#bfbfbf" stroke="#707070" d="M0 0h210v60H0z"/></clipPath></defs><g transform="translate(-732.88 -131)" clip-path="url(#a)" data-name="Mask Group 6"><path d="M747.121 177.406s-2.292 1.334 1.632 1.784a34.333 34.333 0 0012.427-.527 21.618 21.618 0 003.3 1.612c-11.746 5.034-26.583-.292-17.357-2.869" data-name="Path 138" fill="#5382a1"/><path d="M745.686 170.84s-2.572 1.9 1.356 2.31a48.469 48.469 0 0016.03-.77 7.116 7.116 0 002.469 1.505c-14.2 4.155-30.018.325-19.855-3.045" data-name="Path 139" fill="#5382a1"/><path d="M757.786 159.694c2.894 3.332-.76 6.33-.76 6.33s7.349-3.794 3.974-8.544c-3.152-4.43-5.569-6.631 7.517-14.221 0 0-20.541 5.13-10.73 16.434" data-name="Path 140" fill="#e76f00"/><path d="M773.32 182.265s1.7 1.4-1.869 2.48c-6.78 2.054-28.218 2.674-34.174.082-2.141-.931 1.874-2.224 3.137-2.495a8.138 8.138 0 012.07-.232c-2.38-1.678-15.388 3.292-6.604 4.715 23.948 3.884 43.655-1.749 37.443-4.551" data-name="Path 141" fill="#5382a1"/><path d="M748.224 164.031s-10.9 2.59-3.862 3.531a81.9 81.9 0 0014.424-.155c4.513-.381 9.044-1.19 9.044-1.19a19.146 19.146 0 00-2.743 1.468c-11.072 2.912-32.465 1.555-26.307-1.422a20.634 20.634 0 019.443-2.232" data-name="Path 142" fill="#5382a1"/><path d="M767.786 174.965c11.257-5.85 6.052-11.471 2.419-10.714a8.413 8.413 0 00-1.287.346 2.051 2.051 0 01.962-.742c7.187-2.527 12.714 7.452-2.32 11.4a.976.976 0 00.226-.295" data-name="Path 143" fill="#5382a1"/><path d="M760.999 131.005s6.235 6.235-5.913 15.826c-9.741 7.693-2.221 12.079 0 17.09-5.686-5.13-9.859-9.646-7.059-13.849 4.105-6.17 15.488-9.161 12.972-19.067" data-name="Path 144" fill="#e76f00"/><path d="M749.33 190.816c10.805.692 27.4-.384 27.791-5.5 0 0-.755 1.938-8.93 3.477a88.84 88.84 0 01-27.344.421s1.381 1.143 8.483 1.6" data-name="Path 145" fill="#5382a1"/></g></svg>