<svg viewBox="0 0 120.95 60" xmlns="http://www.w3.org/2000/svg"><g transform="translate(-464.51 -131)" clip-path="url(#clip-path)" data-name="Mask Group 5"><path d="M465.1 190.035h10v-42.569h-10zm4.98-48.152a5.443 5.443 0 100-10.883 5.443 5.443 0 100 10.883zm38.314-10.763c-16.907 0-27.51 11.526-27.51 29.96S491.486 191 508.394 191c16.867 0 27.47-11.486 27.47-29.92s-10.602-29.96-27.47-29.96zm0 8.835c10.321 0 16.907 8.193 16.907 21.124 0 12.891-6.586 21.085-16.907 21.085-10.361 0-16.907-8.193-16.907-21.085 0-12.931 6.546-21.124 16.907-21.124zm31.688 33.776c.438 10.683 9.197 17.269 22.53 17.269 14.016 0 22.852-6.907 22.852-17.911 0-8.634-4.98-13.494-16.747-16.184l-6.667-1.527c-7.109-1.687-10.04-3.936-10.04-7.791 0-4.819 4.418-8.032 10.964-8.032 6.626 0 11.164 3.253 11.647 8.675h9.879c-.242-10.202-8.68-17.11-21.446-17.11-12.611 0-21.566 6.948-21.566 17.229 0 8.273 5.06 13.414 15.742 15.864l7.51 1.767c7.309 1.727 10.281 4.136 10.281 8.313 0 4.819-4.86 8.273-11.847 8.273-7.068 0-12.409-3.494-13.052-8.835z" data-name="Path 137"/></g></svg>