<svg viewBox="0 0 97.985 60" xmlns="http://www.w3.org/2000/svg" xmlns:xlink="http://www.w3.org/1999/xlink"><defs><linearGradient id="b" x1=".682" x2=".278" y1=".175" y2=".898"><stop stop-color="#41873f" offset="0"/><stop stop-color="#418b3d" offset=".329"/><stop stop-color="#419637" offset=".635"/><stop stop-color="#3fa92d" offset=".932"/><stop stop-color="#3fae2a" offset="1"/></linearGradient><linearGradient id="e" x1="9.849" x2="35.381" y1="12.385" y2="-3.806" gradientTransform="scale(.92602 1.0799)" gradientUnits="userSpaceOnUse"><stop stop-color="#41873f" offset=".138"/><stop stop-color="#54a044" offset=".403"/><stop stop-color="#66b848" offset=".714"/><stop stop-color="#6cc04a" offset=".908"/></linearGradient><linearGradient id="a" x1="-44.138" x2="53.279" y1=".134" y2=".134"><stop stop-color="#6cc04a" offset=".092"/><stop stop-color="#66b848" offset=".286"/><stop stop-color="#54a044" offset=".597"/><stop stop-color="#41873f" offset=".862"/></linearGradient><linearGradient id="g" x1="-.275" x2="23.052" y1="12.836" y2="12.836" gradientTransform="scale(.92508 1.081)" gradientUnits="userSpaceOnUse" xlink:href="#a"/><linearGradient id="h" x1="22.76" x2="32.613" y1="13.059" y2="13.059" gradientTransform="scale(.65254 1.5325)" gradientUnits="userSpaceOnUse" xlink:href="#a"/><linearGradient id="i" x1="-.202" x2="16.841" y1="28.897" y2="28.897" gradientTransform="scale(1.2661 .7898)" gradientUnits="userSpaceOnUse" xlink:href="#a"/><linearGradient id="j" x1="19.322" x2="8.815" y1="7.132" y2="41.494" gradientTransform="scale(1.2661 .7898)" gradientUnits="userSpaceOnUse" xlink:href="#b"/><linearGradient id="d" x1="15.3" x2="6.292" y1="4.093" y2="20.214" gradientTransform="scale(.93677 1.0675)" gradientUnits="userSpaceOnUse" xlink:href="#b"/><linearGradient id="f" x1="1.075" x2="11.575" y1=".268" y2=".268" gradientTransform="scale(1.633 .61237)" gradientUnits="userSpaceOnUse" xlink:href="#a"/><clipPath id="c"><path transform="translate(190 211)" data-name="Rectangle 4" fill="#bfbfbf" stroke="#707070" d="M0 0h210v60H0z"/></clipPath></defs><g transform="translate(-246.01 -211)" clip-path="url(#c)" data-name="Mask Group 7"><path d="M294.465 271a1.943 1.943 0 01-.93-.244l-2.946-1.75c-.443-.244-.222-.332-.089-.377a5.367 5.367 0 001.329-.6.2.2 0 01.222.022l2.259 1.351a.281.281 0 00.266 0l8.837-5.116a.254.254 0 00.133-.244v-10.207a.254.254 0 00-.133-.244l-8.837-5.091a.28.28 0 00-.266 0l-8.837 5.094a.278.278 0 00-.133.244v10.208a.278.278 0 00.133.244l2.414 1.4c1.307.664 2.126-.111 2.126-.886v-10.083a.269.269 0 01.266-.266h1.13a.269.269 0 01.266.266V264.8a2.457 2.457 0 01-2.615 2.767 3.8 3.8 0 01-2.038-.554l-2.325-1.329a1.869 1.869 0 01-.93-1.617v-10.21a1.869 1.869 0 01.93-1.617l8.837-5.116a1.977 1.977 0 011.861 0l8.837 5.116a1.869 1.869 0 01.93 1.617v10.21a1.869 1.869 0 01-.93 1.617l-8.837 5.116a2.265 2.265 0 01-.93.2zm2.724-7.021c-3.876 0-4.673-1.772-4.673-3.278a.269.269 0 01.266-.266h1.152a.228.228 0 01.244.222c.177 1.174.687 1.75 3.034 1.75 1.86 0 2.658-.421 2.658-1.418 0-.576-.222-1-3.123-1.285-2.414-.244-3.92-.775-3.92-2.7 0-1.794 1.506-2.857 4.031-2.857 2.835 0 4.23.975 4.407 3.1a.357.357 0 01-.066.2.274.274 0 01-.177.089h-1.153a.259.259 0 01-.244-.2c-.266-1.218-.952-1.617-2.769-1.617-2.038 0-2.281.709-2.281 1.24 0 .642.288.842 3.034 1.2 2.724.354 4.009.864 4.009 2.768-.021 1.945-1.616 3.052-4.429 3.052z" data-name="Path 146" fill="#539e43"/><path d="M267.045 231.067a1.127 1.127 0 00-.576-.975l-9.391-5.4a1.363 1.363 0 00-.509-.155h-.089a1.053 1.053 0 00-.509.155l-9.391 5.4a1.127 1.127 0 00-.576.975l.022 14.533a.551.551 0 00.288.487.5.5 0 00.554 0l5.581-3.189a1.127 1.127 0 00.576-.974v-6.8a1.127 1.127 0 01.576-.974l2.37-1.373a1.073 1.073 0 01.576-.155.951.951 0 01.554.155l2.37 1.373a1.127 1.127 0 01.576.974v6.8a1.127 1.127 0 00.576.974l5.581 3.189a.541.541 0 00.576 0 .551.551 0 00.288-.487l-.022-14.529z" data-name="Path 147" fill="#333"/><path d="M312.184 211.066a.609.609 0 00-.554 0 .577.577 0 00-.288.487v14.4a.4.4 0 01-.6.354l-2.348-1.351a1.142 1.142 0 00-1.13 0l-9.388 5.424a1.127 1.127 0 00-.576.974v10.83a1.127 1.127 0 00.576.975l9.391 5.426a1.142 1.142 0 001.13 0l9.391-5.426a1.127 1.127 0 00.576-.975v-27a1.136 1.136 0 00-.576-1zm-.864 27.553a.254.254 0 01-.133.244l-3.211 1.86a.328.328 0 01-.288 0l-3.211-1.86a.278.278 0 01-.133-.244V234.9a.254.254 0 01.133-.244l3.211-1.861a.329.329 0 01.288 0l3.211 1.861a.278.278 0 01.133.244v3.721z" data-name="Path 148" fill="#333"/><g data-name="Group 52"><path d="M343.435 234.811a1.106 1.106 0 00.554-.975V231.2a1.154 1.154 0 00-.554-.975l-9.32-5.404a1.142 1.142 0 00-1.13 0l-9.395 5.426a1.127 1.127 0 00-.575.975v10.831a1.127 1.127 0 00.576.975l9.324 5.315a1.1 1.1 0 001.107 0l5.648-3.145a.556.556 0 000-.975l-9.435-5.426a.577.577 0 01-.288-.487v-3.389a.55.55 0 01.288-.487l2.946-1.683a.541.541 0 01.576 0l2.946 1.683a.577.577 0 01.288.487v2.658a.55.55 0 00.288.487.541.541 0 00.576 0z" data-name="Path 149" fill="#333"/><path d="M333.402 234.301a.2.2 0 01.221 0l1.792 1.041a.233.233 0 01.111.2v2.082a.233.233 0 01-.111.2l-1.794 1.041a.2.2 0 01-.221 0l-1.792-1.043a.233.233 0 01-.111-.2v-2.081a.233.233 0 01.111-.2z" data-name="Path 150" fill="#539e43"/></g><g data-name="Group 56"><path d="M11.1.354a1.142 1.142 0 00-1.13 0L.642 5.736a1.106 1.106 0 00-.554.975V17.5a1.154 1.154 0 00.554.975l9.324 5.382a1.142 1.142 0 001.13 0l9.325-5.382a1.106 1.106 0 00.554-.975V6.711a1.154 1.154 0 00-.554-.975z" data-name="Path 151" fill="url(#d)" transform="translate(271.652 224.511)"/><g data-name="Group 53"><path d="M281.597 224.865l-9.345 5.382a1.149 1.149 0 00-.6.975v10.789a1.067 1.067 0 00.288.709l10.498-17.988a1.265 1.265 0 00-.842.133z" data-name="Path 152" fill="none"/><path d="M282.505 248.476a1.362 1.362 0 00.266-.111l9.347-5.382a1.127 1.127 0 00.576-.975v-10.786a1.128 1.128 0 00-.332-.775z" data-name="Path 153" fill="none"/><path d="M20.443 5.736L11.074.354a1.538 1.538 0 00-.288-.111L.288 18.228a1.165 1.165 0 00.31.266l9.369 5.382a1.079 1.079 0 00.864.111l9.856-18.029a1.159 1.159 0 00-.244-.221z" data-name="Path 154" fill="url(#e)" transform="translate(271.652 224.511)"/></g><g data-name="Group 55"><g data-name="Group 54"><path d="M292.693 242.008v-10.786a1.148 1.148 0 00-.6-.975l-9.367-5.382a.978.978 0 00-.354-.133l10.255 17.52a.447.447 0 00.066-.244z" data-name="Path 155" fill="none"/><path d="M272.252 230.247a1.149 1.149 0 00-.6.975v10.786a1.2 1.2 0 00.6.974l9.369 5.382a1.043 1.043 0 00.731.133l-10.036-18.272z" data-name="Path 156" fill="none"/><path d="M9.657.155l-.133.066H9.7z" data-name="Path 157" fill-rule="evenodd" fill="url(#f)" transform="translate(271.652 222.739)"/><path d="M20.465 20.244a1.259 1.259 0 00.554-.709L10.742 1.993a1.125 1.125 0 00-.8.133l-9.3 5.36 10.034 18.295a1.551 1.551 0 00.421-.133l9.369-5.4z" data-name="Path 158" fill-rule="evenodd" fill="url(#g)" transform="translate(271.652 222.739)"/><path d="M21.329 20.067l-.066-.111v.155z" data-name="Path 159" fill-rule="evenodd" fill="url(#h)" transform="translate(271.652 222.739)"/><path d="M20.465 20.244l-9.347 5.382a1.332 1.332 0 01-.421.133l.177.332 10.365-6v-.133l-.266-.443a1.029 1.029 0 01-.509.731z" data-name="Path 160" fill-rule="evenodd" fill="url(#i)" transform="translate(271.652 222.739)"/><path d="M20.465 20.244l-9.347 5.382a1.332 1.332 0 01-.421.133l.177.332 10.365-6v-.133l-.266-.443a1.029 1.029 0 01-.509.731z" data-name="Path 161" fill-rule="evenodd" fill="url(#j)" transform="translate(271.652 222.739)"/></g></g></g></g></svg>