<svg viewBox="0 0 56.057 60" xmlns="http://www.w3.org/2000/svg"><defs><linearGradient id="b" x1="63.929" x2="63.929" y2="28.161" gradientTransform="scale(.71893 1.391)" gradientUnits="userSpaceOnUse"><stop stop-color="#73b723" offset="0"/><stop stop-color="#d8ee61" offset="1"/></linearGradient><linearGradient id="c" x1="44.252" x2="26.988" y1="33.157" y2="51.003" gradientTransform="scale(.85003 1.1764)" gradientUnits="userSpaceOnUse"><stop stop-color="#98c9ea" offset="0"/><stop stop-color="#026fb2" offset=".689"/><stop stop-color="#086eb6" offset="1"/></linearGradient><linearGradient id="d" x1=".024" x2="26.735" y1="6.085" y2="25.861" gradientTransform="scale(1.1007 .90855)" gradientUnits="userSpaceOnUse"><stop stop-color="#d73721" offset="0"/><stop stop-color="#f7d768" offset="1"/></linearGradient><linearGradient id="e" x1="51.598" x2="59.498" y1="16.212" y2="23.39" gradientTransform="scale(.66302 1.5083)" gradientUnits="userSpaceOnUse"><stop stop-color="#d4c883" offset="0"/><stop stop-color="#a1d1a7" offset="1"/></linearGradient><clipPath id="a"><path transform="translate(1110 51)" data-name="Rectangle 4" fill="#bfbfbf" stroke="#707070" d="M0 0h210v60H0z"/></clipPath></defs><g transform="translate(-1187 -51)" clip-path="url(#a)" data-name="Mask Group 13"><path d="M48.667 0c4.081 2.079 7.586 7.536 7.41 14.94-.533 9.123-7.148 16.986-14.345 24.231-.4-8.835-2.324-14.465-5.324-22.382C33.577 8.811 41.856.256 48.667 0z" data-name="Path 171" fill="url(#b)" transform="translate(1186.9 50.999)"/><path d="M26.594 38.861a40.49 40.49 0 004.828-7.346c7.424 3.882 5.672 3.157 9.253 7.293l.034.385c.3 5.734-3.886 18.991-20.358 20.808-1.14-8.908 2.567-16.506 6.243-21.14z" data-name="Path 172" fill="url(#c)" transform="translate(1186.9 50.999)"/><path d="M.086 5.539c11.736-4.644 24.367.113 31.659 10.025Q32.8 17 33.751 18.544c1.139 7.274.27 11.314-1.951 13.456a42.786 42.786 0 00-4.675-1.992c-3.862-1.4-7.425-2.331-12.515-3.838C2.527 22.871-.453 12.508.086 5.539z" data-name="Path 173" fill="url(#d)" transform="translate(1186.9 50.999)"/><path d="M33.3 17.832c.077.12.153.238.228.359l.092.149q.282.454.555.915l.031.052.049.083.045.077.13.224.009.016.177.31.005.009q.192.338.378.68l.016.029.138.255v.006l.151.284.043.083.084.162.1.2.1.194q.152.3.3.6l.025.05q.268.548.521 1.1l.129.282.013.028.082.183.1.217.054.125.087.2.062.144.131.31.009.022.14.337.017.041c.15.364.294.728.435 1.095l.014.034.116.307.007.017.067.181.22.6.028.079c.08.225.158.452.235.677l.024.072c.072.212.14.424.209.636l.034.1.008.024.109.343v.015l.1.328.1.338v.007l.083.285.026.092.051.177c.057.2.113.407.168.61l.041.152.079.3v.014q.144.554.273 1.107l.008.038.009.039q.168.73.311 1.454l.009.048q.22 1.126.377 2.237v.01q.049.342.091.683l.012.1.038.325.032.3.011.1.023.238.009.1v.039l.029.327a25.541 25.541 0 00-9.387-7.434 20.606 20.606 0 002-13.92" data-name="Path 174" fill="url(#e)" transform="translate(1186.9 50.999)"/></g></svg>