<svg xmlns="http://www.w3.org/2000/svg" width="210" height="60"><defs><clipPath id="a"><path data-name="Rectangle 4" transform="translate(420 51)" fill="#bfbfbf" stroke="#707070" d="M0 0h210v60H0z"/></clipPath></defs><g data-name="Mask Group 2" transform="translate(-420 -51)" clip-path="url(#a)"><g data-name="Group 51" fill-rule="evenodd"><g data-name="Group 49" fill="#b52e31"><path data-name="Path 128" d="M481.769 94.74V68.9h3.322l15.791 20.791V68.9h3.158v25.84h-3.317l-15.8-21v21z"/><path data-name="Path 129" d="M529.757 93.715a19.177 19.177 0 01-6.727 1.189q-14.027 0-14.027-13.453 0-12.735 13.536-12.76a23.987 23.987 0 017.219 1.066v2.876a18.773 18.773 0 00-6.85-1.271c-7.055-.001-10.585 3.363-10.585 10.007 0 7.178 3.486 10.746 10.418 10.746a18.06 18.06 0 003.691-.451V83.01h3.322v10.705z"/><path data-name="Path 130" d="M535.089 84.773V68.9h3.322v15.873c0 4.963 2.461 7.465 7.424 7.465 4.922 0 7.424-2.5 7.424-7.465V68.9h3.322v15.873c0 6.768-3.568 10.172-10.746 10.172s-10.746-3.4-10.746-10.172z"/><path data-name="Path 131" d="M565.851 68.9v23.133h13.535v2.707h-16.857V68.9z"/><path data-name="Path 132" d="M584.185 94.74h-3.486l12.838-29.244 12.838 29.244h-3.692l-3.322-8.121h-8.531l.9-2.707h6.521l-4.84-11.689-9.229 22.518z"/><path data-name="Path 133" d="M609.943 94.74V68.9h11.033c4.922 0 7.383 2.051 7.383 6.193 0 3.363-2.42 5.865-7.219 7.465l8.859 12.182h-4.389l-8.2-11.607v-2.174c4.922-.779 7.424-2.666 7.424-5.7 0-2.379-1.354-3.568-4.1-3.568h-7.383V94.74z"/></g><g data-name="Group 50"><path data-name="Path 134" d="M420 62.01l26.455-9.434 27.152 9.27-4.388 34.986-22.764 12.592-22.394-12.428L420 62.01z" fill="#e23237"/><path data-name="Path 135" d="M473.607 61.846l-27.152-9.27v56.848l22.764-12.592 4.388-34.986z" fill="#b52e31"/><path data-name="Path 136" d="M446.5 59.221l-16.492 36.668 6.152-.123 3.322-8.29h14.725l3.609 8.367 5.865.123L446.5 59.221zm.041 11.771l5.578 11.648h-10.463l4.881-11.648z" fill="#fff"/></g></g></g></svg>