<svg viewBox="0 0 60 60" xmlns="http://www.w3.org/2000/svg"><defs><clipPath id="a"><path transform="translate(880 51)" data-name="Rectangle 4" fill="#bfbfbf" stroke="#707070" d="M0 0h210v60H0z"/></clipPath></defs><g transform="translate(-955 -51)" clip-path="url(#a)" data-name="Mask Group 12"><path d="M959.264 81a25.741 25.741 0 0014.5 23.162l-12.271-33.637A25.638 25.638 0 00959.264 81zm43.11-1.3a13.552 13.552 0 00-2.122-7.1c-1.3-2.12-2.527-3.915-2.527-6.035a4.457 4.457 0 014.321-4.565c.114 0 .222.014.333.021a25.73 25.73 0 00-38.879 4.843c.6.018 1.173.031 1.656.031 2.692 0 6.859-.327 6.859-.327a1.063 1.063 0 01.165 2.12s-1.394.164-2.946.245L978.6 96.81l5.632-16.891-4.01-10.986c-1.386-.081-2.7-.245-2.7-.245a1.063 1.063 0 01.163-2.12s4.25.327 6.779.327c2.691 0 6.859-.327 6.859-.327a1.063 1.063 0 01.165 2.12s-1.4.164-2.946.245l9.3 27.665 2.567-8.578c1.112-3.56 1.959-6.116 1.959-8.32zm-16.922 3.55l-7.722 22.438a25.749 25.749 0 0015.817-.41 2.258 2.258 0 01-.183-.355zm22.131-14.6a19.761 19.761 0 01.173 2.646 24.276 24.276 0 01-1.956 9.22l-7.862 22.729a25.741 25.741 0 009.645-34.593zM985 51a30 30 0 1030 30 30.034 30.034 0 00-30-30zm0 58.625A28.625 28.625 0 111013.624 81 28.658 28.658 0 01985 109.625z" data-name="Path 170" fill="#464342"/></g></svg>