<svg viewBox="0 0 114.12 60" xmlns="http://www.w3.org/2000/svg"><defs><radialGradient id="b" cx="34.258" cy="10.55" r="142.51" gradientTransform="matrix(.526 0 0 .526 16.246 5.003)" gradientUnits="userSpaceOnUse"><stop stop-color="#fff" offset="0"/><stop stop-color="#4c6b97" offset=".5"/><stop stop-color="#231f20" offset="1"/></radialGradient><clipPath id="a"><path transform="translate(420 211)" data-name="Rectangle 4" fill="#bfbfbf" stroke="#707070" d="M0 0h210v60H0z"/></clipPath></defs><g transform="translate(-467.94 -211)" clip-path="url(#a)" data-name="Mask Group 8"><g transform="translate(467.94 211)"><ellipse cx="57.058" cy="30" rx="57.058" ry="30" data-name="Ellipse 5" fill="url(#b)"/><ellipse transform="translate(2.229 2.229)" cx="54.829" cy="27.771" rx="54.829" ry="27.771" data-name="Ellipse 6" fill="#6181b6"/><g data-name="Group 57" fill="#fff"><path d="M68.157 39l2.719-14c.624-3.165.089-5.527-1.516-7-1.56-1.426-4.235-2.14-8.158-2.14h-4.724l1.337-6.954a.932.932 0 00-.178-.758.8.8 0 00-.669-.312h-6.507a.911.911 0 00-.892.713L46.672 23.4a7.931 7.931 0 00-1.961-4.279c-1.917-2.184-4.9-3.3-8.96-3.3H23.224a.911.911 0 00-.892.713l-5.84 30.134a.932.932 0 00.178.758.8.8 0 00.669.312h6.553a.911.911 0 00.892-.713l1.426-7.266h4.86a21.357 21.357 0 006.374-.8 12.64 12.64 0 004.681-2.808 14.4 14.4 0 002.764-3.432l-1.159 6.018a.932.932 0 00.178.758.8.8 0 00.669.312h6.508a.911.911 0 00.892-.713L55.186 22.6h4.458c1.917 0 2.452.357 2.63.535.134.134.4.669.089 2.318l-2.586 13.329a.932.932 0 00.178.758.8.8 0 00.669.312h6.686a1.243 1.243 0 00.847-.852zM38.024 27.415a7.076 7.076 0 01-2.273 4.458 8.992 8.992 0 01-5.351 1.292h-2.9l2.1-10.788h3.744c2.764 0 3.878.579 4.324 1.07.579.713.712 2.095.356 3.968z" data-name="Path 162"/><path d="M95.973 19.123c-1.917-2.184-4.9-3.3-8.96-3.3H74.4a.911.911 0 00-.892.713l-5.84 30.089a.932.932 0 00.178.758.8.8 0 00.669.312h6.553a.911.911 0 00.892-.713l1.426-7.266h4.859a21.356 21.356 0 006.374-.8 12.64 12.64 0 004.681-2.809 14.353 14.353 0 002.853-3.566 14.843 14.843 0 001.56-4.279c.757-3.879.177-6.91-1.74-9.139zm-6.82 8.291a7.076 7.076 0 01-2.273 4.458 8.992 8.992 0 01-5.349 1.293h-2.9l2.1-10.788h3.744c2.764 0 3.878.579 4.324 1.07.622.713.755 2.095.354 3.968z" data-name="Path 163"/></g><g data-name="Group 58" fill="#000004"><path d="M33.343 21.486c2.5 0 4.146.446 4.993 1.382s1.025 2.5.579 4.725a7.911 7.911 0 01-2.63 4.993q-1.939 1.471-5.884 1.471h-3.967l2.452-12.571zM17.385 46.805h6.553l1.56-7.979h5.617a19.493 19.493 0 006.107-.8 11.707 11.707 0 004.368-2.63 13.377 13.377 0 002.675-3.343 13.006 13.006 0 001.426-4.012c.713-3.566.178-6.33-1.56-8.336s-4.5-2.987-8.291-2.987H23.224z" data-name="Path 164"/><path d="M50.505 8.737h6.508l-1.56 7.979h5.795c3.655 0 6.152.624 7.533 1.917s1.783 3.343 1.248 6.2l-2.719 14h-6.6L63.3 25.5c.312-1.516.178-2.541-.312-3.076s-1.6-.847-3.254-.847h-5.217l-3.343 17.249h-6.508z" data-name="Path 165"/><path d="M84.473 21.486c2.5 0 4.146.446 4.993 1.382s1.025 2.5.579 4.725a7.911 7.911 0 01-2.63 4.993q-1.939 1.471-5.884 1.471h-3.968l2.452-12.571zM68.514 46.805h6.553l1.56-7.979h5.617a19.493 19.493 0 006.107-.8 11.707 11.707 0 004.368-2.63 13.377 13.377 0 002.675-3.343 13.006 13.006 0 001.426-4.012c.713-3.566.178-6.33-1.56-8.336s-4.5-2.987-8.291-2.987H74.354z" data-name="Path 166"/></g></g></g></svg>