<svg viewBox="0 0 51.1 60" xmlns="http://www.w3.org/2000/svg"><defs><clipPath id="a"><path transform="translate(190 51)" data-name="Rectangle 4" fill="#bfbfbf" stroke="#707070" d="M0 0h210v60H0z"/></clipPath></defs><g transform="translate(-269.45 -51)" clip-path="url(#a)" data-name="Mask Group 1"><path d="M285.14 51a1.757 1.757 0 00-1.525 2.614l1.906 3.442a15.609 15.609 0 00-7.635 13.234v1.026a4.806 4.806 0 00-8.436 3.157v14.813a4.806 4.806 0 008.436 3.153v2.075a5.1 5.1 0 005.087 5.087h1.291v6.59a4.809 4.809 0 109.618 0v-6.59h2.233v6.59a4.809 4.809 0 109.618 0v-6.59h1.291a5.1 5.1 0 005.087-5.087v-2.075a4.806 4.806 0 008.439-3.153V74.473a4.806 4.806 0 00-8.436-3.153v-1.025a15.61 15.61 0 00-7.645-13.234l1.911-3.447a1.763 1.763 0 00-3.082-1.71l-2 3.611a18.382 18.382 0 00-12.6-.005l-2-3.605a1.763 1.763 0 00-1.558-.9z" data-name="Path 76" fill="#fff"/><path d="M274.259 70.916a3.536 3.536 0 00-3.556 3.556v14.814a3.557 3.557 0 107.113 0V74.473a3.536 3.536 0 00-3.556-3.556zm41.478 0a3.536 3.536 0 00-3.556 3.556v14.814a3.557 3.557 0 107.113 0V74.473a3.536 3.536 0 00-3.556-3.556z" data-name="Path 77" fill="#a4c639"/><path d="M289.072 87.821a3.536 3.536 0 00-3.556 3.556v14.814a3.557 3.557 0 007.113 0V91.377a3.536 3.536 0 00-3.556-3.556zm11.851 0a3.536 3.536 0 00-3.556 3.556v14.814a3.557 3.557 0 007.113 0V91.377a3.536 3.536 0 00-3.556-3.556z" data-name="Path 78" fill="#a4c639"/><path d="M285.15 52.252a.508.508 0 00-.436.752l2.507 4.524a14.492 14.492 0 00-8.082 12.746h31.718a14.492 14.492 0 00-8.082-12.746l2.505-4.524a.508.508 0 00-.436-.752.5.5 0 00-.447.261l-2.537 4.576a17.094 17.094 0 00-13.724 0l-2.538-4.575a.5.5 0 00-.447-.261zm-6.011 19.276v22.986a3.826 3.826 0 003.834 3.834h24.05a3.826 3.826 0 003.834-3.834V71.528z" data-name="Path 79" fill="#a4c639"/><path d="M287.678 61.821a1.323 1.323 0 101.323 1.323 1.332 1.332 0 00-1.323-1.323zm14.639 0a1.323 1.323 0 101.323 1.323 1.332 1.332 0 00-1.323-1.323z" data-name="Path 80" fill="#fff"/></g></svg>