<svg viewBox="0 0 67.43 59.997" xmlns="http://www.w3.org/2000/svg"><defs><clipPath id="a"><path transform="translate(1110 211)" data-name="Rectangle 4" fill="#bfbfbf" stroke="#707070" d="M0 0h210v60H0z"/></clipPath></defs><g transform="translate(-1181.3 -211)" clip-path="url(#a)" data-name="Mask Group 15"><g transform="translate(1181.327 211)" data-name="Group 618" fill="#008aff"><path d="M54.42 45.083a43.505 43.505 0 00-.645-3.371q-.353-1.517-.819-3.089a67.385 67.385 0 00-3.2-8.492q-.855-1.893-1.843-3.8-.868-1.674-1.831-3.343t-1.981-3.257q-1.151-1.8-2.366-3.493a67.058 67.058 0 00-5.753-7.017q-1.125-1.189-2.265-2.255-1.3-1.213-2.6-2.246C25.46.229 20.396-1.12 16.855.92s-4.906 7.105-3.844 14.25a42.16 42.16 0 00.647 3.371q.349 1.517.818 3.089a67.083 67.083 0 003.2 8.492q.855 1.893 1.842 3.795.869 1.684 1.829 3.347t1.981 3.257q1.153 1.8 2.366 3.5a67.021 67.021 0 005.753 7.016q1.126 1.189 2.266 2.255 1.3 1.213 2.6 2.245a25.95 25.95 0 005.954 3.666s4.516 1.783 7.984 0a8.579 8.579 0 004.134-5.753 23.712 23.712 0 00.035-8.364zm-3.188 7.852a4.532 4.532 0 01-6.53 3.771 20.609 20.609 0 01-6.407-3.67q-1.157-.919-2.318-2-1.136-1.055-2.266-2.255a60.112 60.112 0 01-3.809-4.464q-1.244-1.606-2.447-3.351a79.973 79.973 0 01-6.262-10.843q-.91-1.908-1.678-3.795a60.36 60.36 0 01-1.961-5.534 49.54 49.54 0 01-.814-3.087 40.592 40.592 0 01-.571-3 20.593 20.593 0 01.026-7.386 5.327 5.327 0 012.252-3.631 4.054 4.054 0 012.058-.508 7.625 7.625 0 012.215.37 20.6 20.6 0 016.407 3.669q1.157.919 2.318 2 1.138 1.053 2.265 2.248a60.993 60.993 0 013.815 4.466q1.244 1.606 2.447 3.351c1.157 1.683 2.276 3.456 3.343 5.3s2.041 3.7 2.919 5.543q.91 1.91 1.678 3.8a60.84 60.84 0 011.961 5.532q.466 1.574.816 3.087c.233 1.027.425 2.031.57 3a20.584 20.584 0 01-.024 7.386z" data-name="Path 7593"/><path d="M57.02 19.68q-1.542-.608-3.243-1.127-1.489-.453-3.084-.835a67.124 67.124 0 00-8.952-1.477 74.89 74.89 0 00-4.206-.3 82.7 82.7 0 00-11.832.3 67.1 67.1 0 00-8.951 1.477q-1.593.381-3.084.835-1.7.517-3.243 1.127C3.705 22.332.005 26.045.005 30.133s3.7 7.8 10.418 10.454q1.542.608 3.242 1.127 1.489.453 3.084.834a67.113 67.113 0 008.95 1.479 82.05 82.05 0 008.017.386 82.65 82.65 0 003.809-.086q2.138-.1 4.208-.3a66.93 66.93 0 008.954-1.477q1.593-.381 3.084-.835 1.7-.516 3.242-1.126c6.722-2.652 10.422-6.364 10.422-10.453s-3.7-7.804-10.415-10.456zm5.209 14.223a20.578 20.578 0 01-6.38 3.714q-1.376.544-2.889 1.011-1.483.457-3.08.837a60.537 60.537 0 01-5.773 1.069q-2.012.278-4.12.444c-2.038.163-4.132.246-6.261.246s-4.223-.082-6.261-.244a70.378 70.378 0 01-4.125-.445 60.792 60.792 0 01-5.773-1.069q-1.6-.379-3.08-.837-1.511-.466-2.889-1.011a20.578 20.578 0 01-6.38-3.714 4.525 4.525 0 010-7.538 20.577 20.577 0 016.38-3.716q1.376-.544 2.889-1.011 1.483-.457 3.08-.837a60.537 60.537 0 015.773-1.069 70.657 70.657 0 014.125-.445c2.038-.162 4.132-.244 6.261-.244s4.223.082 6.261.246q2.108.164 4.12.444c2.012.277 3.946.634 5.773 1.069q1.6.379 3.08.837 1.511.466 2.889 1.011a20.579 20.579 0 016.38 3.714 4.525 4.525 0 010 7.538z" data-name="Path 7594"/><path d="M50.58.929c-3.541-2.044-8.605-.7-14.262 3.8q-1.3 1.032-2.6 2.246-1.138 1.061-2.266 2.255a67.206 67.206 0 00-5.753 7.016q-1.21 1.689-2.364 3.493-1.019 1.589-1.981 3.257t-1.831 3.343q-.985 1.9-1.842 3.795a67.171 67.171 0 00-3.2 8.492q-.466 1.572-.819 3.09-.4 1.727-.645 3.369a23.7 23.7 0 00.036 8.367c.078.007.544 4.072 4.066 5.753s8.008.1 8.052 0a25.946 25.946 0 005.948-3.663q1.3-1.032 2.6-2.245 1.138-1.061 2.265-2.255a67.232 67.232 0 005.753-7.017q1.21-1.689 2.366-3.5 1.019-1.589 1.981-3.257t1.831-3.343q.985-1.9 1.843-3.8a67.285 67.285 0 003.2-8.484q.466-1.57.818-3.089.4-1.727.647-3.371C55.486 8.038 54.122 2.975 50.58.929zm-.7 19.874a60.22 60.22 0 01-1.961 5.532q-.766 1.882-1.678 3.8c-.878 1.845-1.853 3.7-2.919 5.543s-2.182 3.615-3.343 5.3q-1.2 1.745-2.449 3.352a61.508 61.508 0 01-3.809 4.464q-1.125 1.191-2.265 2.249-1.157 1.076-2.318 2a20.61 20.61 0 01-6.407 3.67 4.532 4.532 0 01-6.531-3.771 20.591 20.591 0 01-.026-7.386 39.52 39.52 0 01.57-3q.344-1.512.816-3.087a60.465 60.465 0 011.961-5.534q.766-1.882 1.678-3.795c.878-1.845 1.853-3.7 2.919-5.543s2.182-3.616 3.343-5.3q1.2-1.742 2.446-3.349a61.41 61.41 0 013.809-4.466q1.127-1.193 2.266-2.249 1.159-1.076 2.318-2a20.6 20.6 0 016.407-3.669 7.625 7.625 0 012.215-.37 4.05 4.05 0 012.058.508 5.292 5.292 0 012.255 3.632 20.591 20.591 0 01.026 7.386 39.047 39.047 0 01-.571 3 46.789 46.789 0 01-.81 3.087z" data-name="Path 7595"/><circle transform="translate(27.383 23.794)" cx="6.338" cy="6.338" r="6.338" data-name="Ellipse 42"/></g></g></svg>