<svg width="64" height="64" viewBox="0 0 64 64" fill="none" xmlns="http://www.w3.org/2000/svg">
<path fill-rule="evenodd" clip-rule="evenodd" d="M3.99988 8.00059C3.99988 3.58867 7.58781 0.000732422 11.9997 0.000732422C16.4077 0.000732422 19.9996 3.58867 19.9996 8.00059C19.9996 12.4125 16.4077 16.0005 11.9997 16.0005C7.58781 16.0005 3.99988 12.4125 3.99988 8.00059ZM39.9992 8.00059C39.9992 12.4188 36.4176 16.0005 31.9994 16.0005C27.5812 16.0005 23.9995 12.4188 23.9995 8.00059C23.9995 3.58239 27.5812 0.000732422 31.9994 0.000732422C36.4176 0.000732422 39.9992 3.58239 39.9992 8.00059ZM42.1672 23.6003L43.9832 37.7441C44.0592 38.3161 43.8832 38.8921 43.4992 39.32C43.1192 39.752 42.5752 40 41.9992 40H39.8433L38.1753 60.3637C37.9673 62.4476 36.2553 63.9996 34.1914 63.9996H29.8114C27.7475 63.9996 26.0315 62.4476 25.8315 60.3997L24.1595 40H21.9996C21.4236 40 20.8796 39.752 20.4996 39.32C20.1196 38.8921 19.9436 38.3161 20.0156 37.7481L21.8356 23.5483C22.0356 21.5484 23.7475 20.0004 25.8115 20.0004H27.9995C28.5315 20.0004 29.0395 20.2124 29.4154 20.5844L31.9994 23.1683L34.5834 20.5844C34.9594 20.2124 35.4673 20.0004 35.9993 20.0004H38.1913C40.2513 20.0004 41.9632 21.5484 42.1672 23.6003ZM51.999 16.0005C56.4172 16.0005 59.9989 12.4188 59.9989 8.00059C59.9989 3.58239 56.4172 0.000732422 51.999 0.000732422C47.5808 0.000732422 43.9992 3.58239 43.9992 8.00059C43.9992 12.4188 47.5808 16.0005 51.999 16.0005ZM63.9828 37.7441L62.1669 23.6043C61.9629 21.5484 60.2549 20.0004 58.1909 20.0004H55.999C55.467 20.0004 54.959 20.2124 54.583 20.5844L51.9991 23.1683L49.4151 20.5844C49.0391 20.2124 48.5311 20.0004 48.0031 20.0004H45.8112C45.6458 20.0004 45.4912 20.0395 45.3365 20.0786C45.2592 20.0982 45.1818 20.1177 45.1032 20.1324C45.6192 21.0444 46.0232 22.0324 46.1432 23.1403L47.9551 37.2361C48.1791 38.9521 47.6431 40.68 46.4911 41.98C45.9472 42.604 45.2512 43.044 44.5072 43.388L45.8352 56.3997C46.0392 58.4517 47.7511 59.9997 49.8151 59.9997H54.195C56.259 59.9997 57.9709 58.4477 58.1789 56.3637L59.8429 40H61.9989C62.5749 40 63.1188 39.752 63.4988 39.32C63.8828 38.8921 64.0588 38.3161 63.9828 37.7441ZM16.0477 37.2441C15.8317 38.9521 16.3597 40.676 17.4956 41.96C18.0556 42.592 18.7556 43.036 19.5035 43.384L18.1755 56.3637C17.9675 58.4477 16.2555 59.9997 14.1916 59.9997H9.81164C7.74768 59.9997 6.03171 58.4477 5.83171 56.3997L4.15974 40H1.99978C1.42779 40 0.879799 39.752 0.499806 39.32C0.119813 38.8921 -0.0561843 38.3161 0.0158144 37.7481L1.83578 23.5483C2.03578 21.5484 3.74775 20.0004 5.81171 20.0004H8.0038C8.53179 20.0004 9.03978 20.2124 9.41578 20.5844L11.9997 23.1683L14.5837 20.5844C14.9597 20.2124 15.4677 20.0004 15.9997 20.0004H18.1916C18.3446 20.0004 18.4875 20.0374 18.6302 20.0743C18.7075 20.0943 18.7848 20.1143 18.8636 20.1284C18.3636 21.0164 17.9716 21.9764 17.8676 23.0403L16.0477 37.2441Z" fill="black"/>
</svg>
