<svg width="64" height="48" viewBox="0 0 64 48" fill="none" xmlns="http://www.w3.org/2000/svg">
<path fill-rule="evenodd" clip-rule="evenodd" d="M27.7707 5.33333H56.6667C60.712 5.33333 64 8.62133 64 12.6667V40.6667C64 44.712 60.712 48 56.6667 48H7.33333C3.288 48 0 44.712 0 40.6667V7.33333C0 3.288 3.288 0 7.33333 0H20.2293C21.4773 0 22.648 0.485333 23.528 1.368L27.2987 5.13867C27.424 5.264 27.5947 5.33333 27.7707 5.33333ZM19.3333 34.6667C21.9067 34.6667 24 32.5733 24 30V20.6667C24 19.5627 23.104 18.6667 22 18.6667C20.896 18.6667 20 19.5627 20 20.6667V30C20 30.368 19.7013 30.6667 19.3333 30.6667H15.3333C14.2293 30.6667 13.3333 31.5627 13.3333 32.6667C13.3333 33.7707 14.2293 34.6667 15.3333 34.6667H19.3333ZM32.6667 34.6667C35.24 34.6667 37.3333 32.5733 37.3333 30V23.3333C37.3333 20.76 35.24 18.6667 32.6667 18.6667H31.3333C28.76 18.6667 26.6667 20.76 26.6667 23.3333V30C26.6667 32.5733 28.76 34.6667 31.3333 34.6667H32.6667ZM45.68 34.6667C48.4293 34.6667 50.6667 32.4293 50.6667 29.6533C50.6667 28.528 50.2773 27.4987 49.6453 26.664C50.2773 25.824 50.6667 24.7893 50.6667 23.6533C50.6667 20.904 48.4293 18.6667 45.68 18.6667H42C40.896 18.6667 40 19.5627 40 20.6667V32.6667C40 33.7707 40.896 34.6667 42 34.6667H45.68ZM31.3334 22.6667H32.6667C33.0347 22.6667 33.3334 22.9654 33.3334 23.3334V30.0001C33.3334 30.3681 33.0347 30.6667 32.6667 30.6667H31.3334C30.9654 30.6667 30.6667 30.3681 30.6667 30.0001V23.3334C30.6667 22.9654 30.9654 22.6667 31.3334 22.6667ZM45.68 24.6667H44V22.6667H45.68C46.224 22.6667 46.6667 23.1094 46.6667 23.6801C46.6667 24.2241 46.224 24.6667 45.68 24.6667ZM45.68 28.6668H44V30.6668H45.68C46.224 30.6668 46.6667 30.2241 46.6667 29.6801C46.6667 29.1094 46.224 28.6668 45.68 28.6668Z" fill="black"/>
</svg>
