<svg width="64" height="64" viewBox="0 0 64 64" fill="none" xmlns="http://www.w3.org/2000/svg">
<path d="M64 32C64 49.6733 49.6733 64 32 64C14.3267 64 0 49.6733 0 32C0 14.3267 14.3267 0 32 0C49.6733 0 64 14.3267 64 32Z" fill="black"/>
<path d="M27.1621 34.2207L23.7959 30.7812H16.1367V34.2207H27.1621Z" fill="white"/>
<path d="M53.6909 42.6357V21.0938C53.6909 18.2041 51.3398 15.8525 48.4497 15.8525H18.5859L12.9604 10.2271L10.3091 12.8789L50.9526 53.5229L53.6045 50.8711L50.2798 47.5464C52.27 46.8022 53.6909 44.8823 53.6909 42.6357ZM48.4502 19.6025C49.272 19.6025 49.9409 20.2715 49.9409 21.0938V23.292H26.0254L22.3359 19.6025H48.4502ZM36.9546 34.2207H38.436V30.8652H33.5986L31.064 28.3306H49.9409V42.6357C49.9409 43.458 49.272 44.127 48.4502 44.127H46.8604L36.9546 34.2207Z" fill="white"/>
<path d="M15.4639 44.3291C14.5356 44.3291 13.7808 43.564 13.7808 42.6357V28.3306H21.2236L16.1748 23.292H13.7808V21.0938C13.7808 21.0278 13.7856 20.9634 13.793 20.8994L11.2344 18.3408C10.7168 19.1333 10.4146 20.0786 10.4146 21.0938V42.6357C10.4146 45.4199 12.6797 47.6846 15.4639 47.6846H40.5781L37.2119 44.3291H15.4639Z" fill="white"/>
</svg>
