<svg width="64" height="64" viewBox="0 0 64 64" fill="none" xmlns="http://www.w3.org/2000/svg">
<g clip-path="url(#clip0)">
<path fill-rule="evenodd" clip-rule="evenodd" d="M63.8896 1.82918C63.8222 0.901937 63.084 0.169027 62.1597 0.0996912C57.5547 -0.246988 52.9678 0.319418 48.4717 1.69442C48.8101 4.78329 50.4077 8.12606 53.1352 10.8536C55.8955 13.6134 59.3291 15.2105 62.4731 15.5094C63.6841 11.2657 64.2583 6.72078 63.8896 1.82918ZM37.225 26.7632C35.0321 24.5698 35.0321 21.002 37.225 18.8086C39.4183 16.6152 42.9867 16.6152 45.18 18.8086C47.3734 21.002 47.3734 24.5698 45.18 26.7632C42.9867 28.9565 39.4183 28.9565 37.225 26.7632ZM0.549217 30.2673L5.85244 24.9641C10.3627 20.4538 15.6181 19.8859 17.2084 20.9055C14.4589 24.4973 11.8627 28.4514 9.44667 32.7468C7.74843 32.3112 5.22646 32.636 2.36025 33.4045C1.53408 33.6257 0.665916 33.2561 0.251366 32.5305C-0.173439 31.7951 -0.0503923 30.8669 0.549217 30.2673ZM9.6923 43.1772C9.1215 42.606 8.98039 41.7324 9.34269 41.0098C9.39076 40.9144 9.45898 40.7753 9.54734 40.5951L9.54736 40.5951C9.98501 39.7026 10.9169 37.8022 12.3437 35.2217L15.2934 38.1719C15.2323 38.228 15.1706 38.2718 15.1088 38.3156L15.1087 38.3157C15.0361 38.3672 14.9635 38.4187 14.892 38.4902C13.0195 40.3623 11.4755 42.0659 10.1508 43.6357L9.6923 43.1772ZM20.3613 53.8462C21.9224 52.5205 23.6216 50.9736 25.4985 49.0967C25.5707 49.0248 25.6226 48.9518 25.6745 48.8788L25.6745 48.8788C25.7181 48.8175 25.7617 48.7561 25.8174 48.6953L28.9062 51.7842C26.3525 53.2065 24.8626 53.9544 23.8705 54.4524C23.603 54.5867 23.3717 54.7028 23.1655 54.8091C22.4404 55.1821 21.5586 55.0435 20.9824 54.4673L20.3613 53.8462ZM24.4992 39.4921C23.1442 38.1371 19.3337 39.352 17.5437 41.1415C11.5554 47.1298 8.85079 51.3754 7.63644 53.8822C7.28829 54.6005 7.43331 55.4604 7.99776 56.0248C8.56319 56.5907 9.42452 56.7343 10.1433 56.3862C12.594 55.1962 16.7878 52.5043 22.8474 46.4452C24.8156 44.476 25.7868 40.7802 24.5007 39.4936L24.4992 39.4921ZM31.7367 63.7988C32.4588 64.1641 33.3334 64.0229 33.9051 63.4507L39.2088 58.1475C43.3148 54.0405 44.0375 48.7417 43.1058 47.0615C39.1 50.0806 35.0419 52.6299 31.2557 54.7642C31.5169 56.2393 31.3431 57.6704 30.7254 61.8501C30.6048 62.6592 31.0228 63.4419 31.7367 63.7988ZM44.8472 2.99951C45.4585 6.64307 47.3638 10.3853 50.4839 13.5054C53.6548 16.6763 57.5137 18.585 61.2461 19.1489C55.8501 32.918 43.1606 43.2671 32.2612 49.8359L27.8906 45.4653C29.064 42.5781 29.3799 39.0698 27.1509 36.8403C24.9248 34.6147 21.415 34.9248 18.5239 36.0986L14.2925 31.8672C22.8096 17.7012 33.5879 7.61719 44.8472 2.99951ZM34.5737 29.415C38.229 33.0698 44.1768 33.0698 47.8315 29.415C51.4868 25.7598 51.4868 19.812 47.8315 16.1567C44.1768 12.502 38.229 12.502 34.5737 16.1567C30.9185 19.8115 30.9185 25.7598 34.5737 29.415Z" fill="black"/>
</g>
<defs>
<clipPath id="clip0">
<rect width="64" height="64" fill="white"/>
</clipPath>
</defs>
</svg>
