<svg width="585" height="53" viewBox="0 0 585 53" fill="none" xmlns="http://www.w3.org/2000/svg">
<g filter="url(#filter0_d)">
<path d="M45.9746 35.5933H20.9154L16.1349 45.2654H3.33545L27.3922 0.128906H39.7291L63.8629 45.2654H50.7551L45.9746 35.5933ZM42.0422 27.6622L33.4835 10.3813L24.9249 27.6622H42.0422Z" fill="white"/>
<path d="M118.418 0.128906L95.055 45.2654H82.7182L59.4324 0.128906H72.9258L89.3492 32.3693L106.004 0.128906H118.418Z" fill="white"/>
<path d="M156.663 35.5933H131.603L126.823 45.2654H114.023L138.08 0.128906H150.417L174.551 45.2654H161.443L156.663 35.5933ZM152.73 27.6622L144.172 10.3813L135.613 27.6622H152.73Z" fill="white"/>
<path d="M180.151 0.128906H204.67C210.53 0.128906 215.696 1.07462 220.168 2.96606C224.692 4.81451 228.187 7.43673 230.655 10.8327C233.173 14.2287 234.433 18.1835 234.433 22.6972C234.433 27.2108 233.173 31.1656 230.655 34.5616C228.187 37.9576 224.692 40.6013 220.168 42.4928C215.696 44.3412 210.53 45.2654 204.67 45.2654H180.151V0.128906ZM204.053 36.6895C209.451 36.6895 213.743 35.4429 216.93 32.9496C220.168 30.4134 221.787 26.9959 221.787 22.6972C221.787 18.3985 220.168 15.0025 216.93 12.5092C213.743 9.97297 209.451 8.70485 204.053 8.70485H192.642V36.6895H204.053Z" fill="white"/>
<path d="M278.645 35.5933H253.586L248.806 45.2654H236.006L260.063 0.128906H272.4L296.534 45.2654H283.426L278.645 35.5933ZM274.713 27.6622L266.154 10.3813L257.596 27.6622H274.713Z" fill="white"/>
<path d="M375.987 45.2654L375.91 6.64146L353.318 39.2687H351.391L328.799 6.77043V45.2654H324.944V0.128906H328.259L352.393 35.013L376.527 0.128906H379.766L379.843 45.2654H375.987Z" fill="white"/>
<path d="M435.902 42.2993V45.2654H398.661V0.128906H434.746V3.09502H402.593V20.8917H431.353V23.7933H402.593V42.2993H435.902Z" fill="white"/>
<path d="M450.24 0.128906H471.598C477.201 0.128906 482.161 1.09612 486.479 3.03054C490.848 4.96496 494.241 7.65166 496.657 11.0906C499.073 14.4866 500.281 18.3555 500.281 22.6972C500.281 27.0389 499.073 30.9292 496.657 34.3682C494.241 37.7642 490.848 40.4294 486.479 42.3638C482.161 44.2982 477.201 45.2654 471.598 45.2654H450.24V0.128906ZM471.289 42.2993C476.275 42.2993 480.67 41.4826 484.474 39.8491C488.278 38.1726 491.208 35.8512 493.264 32.8851C495.32 29.919 496.348 26.523 496.348 22.6972C496.348 18.8713 495.32 15.4753 493.264 12.5092C491.208 9.5431 488.278 7.24328 484.474 5.60977C480.67 3.93327 476.275 3.09502 471.289 3.09502H454.172V42.2993H471.289Z" fill="white"/>
<path d="M513.942 0.128906H517.874V45.2654H513.942V0.128906Z" fill="white"/>
<path d="M570.068 32.5627H538.763L531.901 45.2654H527.66L552.488 0.128906H556.421L581.248 45.2654H577.008L570.068 32.5627ZM568.603 29.7901L554.416 3.73983L540.306 29.7901H568.603Z" fill="white"/>
</g>
<defs>
<filter id="filter0_d" x="0.335449" y="0.128906" width="583.913" height="52.1365" filterUnits="userSpaceOnUse" color-interpolation-filters="sRGB">
<feFlood flood-opacity="0" result="BackgroundImageFix"/>
<feColorMatrix in="SourceAlpha" type="matrix" values="0 0 0 0 0 0 0 0 0 0 0 0 0 0 0 0 0 0 127 0"/>
<feOffset dy="4"/>
<feGaussianBlur stdDeviation="1.5"/>
<feColorMatrix type="matrix" values="0 0 0 0 0 0 0 0 0 0 0 0 0 0 0 0 0 0 0.5 0"/>
<feBlend mode="normal" in2="BackgroundImageFix" result="effect1_dropShadow"/>
<feBlend mode="normal" in="SourceGraphic" in2="effect1_dropShadow" result="shape"/>
</filter>
</defs>
</svg>
