<svg width="22" height="24" viewBox="0 0 22 24" fill="none" xmlns="http://www.w3.org/2000/svg">
<path d="M10.143 10.705C10.2957 10.545 10.3797 10.3317 10.3772 10.1105C10.3747 9.88939 10.2857 9.67801 10.1294 9.52157C9.97312 9.36513 9.76182 9.27603 9.54069 9.27331C9.31955 9.27058 9.10613 9.35446 8.94601 9.507L4.46601 13.987C4.09141 14.3563 3.79433 14.7966 3.59222 15.2823C3.3901 15.7679 3.28702 16.289 3.28901 16.815C3.28688 17.3412 3.3899 17.8625 3.59202 18.3483C3.79414 18.8341 4.09129 19.2746 4.46601 19.644C6.03501 21.213 8.57401 21.213 10.123 19.644L20.239 9.528C20.7577 9.011 21.1687 8.39636 21.4485 7.71959C21.7283 7.04282 21.8712 6.31732 21.869 5.585C21.869 4.098 21.292 2.695 20.239 1.641C19.7204 1.12074 19.1043 0.707942 18.4259 0.426281C17.7474 0.14462 17.0201 -0.000366211 16.2855 -0.000366211C15.5509 -0.000366211 14.8236 0.14462 14.1452 0.426281C13.4667 0.707942 12.8506 1.12074 12.332 1.641L2.23601 11.737C1.56595 12.4016 1.0347 13.1928 0.673154 14.0646C0.311609 14.9363 0.126983 15.8713 0.130011 16.815C0.130011 18.735 0.874011 20.552 2.23601 21.895C2.90081 22.565 3.6922 23.0961 4.56414 23.4575C5.43607 23.8189 6.37116 24.0033 7.31501 24C9.23501 24 11.052 23.257 12.394 21.894L16.874 17.414C17.0266 17.2539 17.1104 17.0405 17.1077 16.8193C17.105 16.5982 17.0159 16.3869 16.8594 16.2306C16.703 16.0743 16.4916 15.9853 16.2705 15.9828C16.0494 15.9803 15.836 16.0643 15.676 16.217L11.196 20.697C10.6873 21.2081 10.0824 21.6134 9.41636 21.8897C8.75028 22.166 8.03612 22.3079 7.31501 22.307C6.5939 22.3079 5.87974 22.166 5.21366 21.8897C4.54759 21.6134 3.94276 21.2081 3.43401 20.697C2.92283 20.1881 2.51741 19.5831 2.24109 18.9169C1.96477 18.2506 1.82302 17.5363 1.82401 16.815C1.8229 16.094 1.9646 15.3799 2.24093 14.714C2.51727 14.048 2.92276 13.4434 3.43401 12.935L13.529 2.838C13.8883 2.47571 14.3162 2.18865 14.7877 1.9936C15.2592 1.79855 15.7648 1.69942 16.275 1.702C17.307 1.702 18.298 2.115 19.021 2.838C19.3831 3.19737 19.67 3.6253 19.8649 4.09678C20.0597 4.56826 20.1587 5.07384 20.156 5.584C20.1556 6.61309 19.7475 7.6001 19.021 8.329L8.90501 18.446C8.01701 19.334 6.55101 19.334 5.64301 18.446C5.42771 18.2325 5.25681 17.9786 5.14019 17.6987C5.02356 17.4189 4.96352 17.1187 4.96352 16.8155C4.96352 16.5123 5.02356 16.2121 5.14019 15.9323C5.25681 15.6524 5.42771 15.3985 5.64301 15.185L10.143 10.705V10.705Z" fill="#FF0000"/>
</svg>
