<svg xmlns="http://www.w3.org/2000/svg" width="22" height="24"><path fill="#fff" d="M10.143 10.705a.847.847 0 00-1.197-1.198l-4.48 4.48a3.95 3.95 0 00-1.177 2.828 3.95 3.95 0 001.177 2.829c1.569 1.569 4.108 1.569 5.657 0L20.239 9.528a5.544 5.544 0 001.63-3.943c0-1.487-.577-2.89-1.63-3.944a5.582 5.582 0 00-7.907 0L2.236 11.737A7.12 7.12 0 00.13 16.815c0 1.92.744 3.737 2.106 5.08A7.12 7.12 0 007.315 24c1.92 0 3.737-.743 5.079-2.106l4.48-4.48a.847.847 0 00-1.198-1.197l-4.48 4.48a5.467 5.467 0 01-3.881 1.61 5.467 5.467 0 01-3.881-1.61 5.467 5.467 0 01-1.61-3.882 5.46 5.46 0 011.61-3.88L13.529 2.838a3.84 3.84 0 012.746-1.136c1.032 0 2.023.413 2.746 1.136a3.84 3.84 0 011.135 2.746 3.891 3.891 0 01-1.135 2.745L8.905 18.446c-.888.888-2.354.888-3.262 0a2.296 2.296 0 010-3.261l4.5-4.48z"/></svg>