<svg width="369" height="224" viewBox="0 0 369 224" fill="none" xmlns="http://www.w3.org/2000/svg">
<path fill-rule="evenodd" clip-rule="evenodd" d="M180.143 60.9025C181.072 60.8251 181.933 60.5176 182.734 60.3114C183.675 60.0691 184.43 59.9012 185.211 59.488C185.485 59.671 185.594 59.8048 186.036 59.8416C186.084 60.4102 186.269 60.9404 186.413 61.4689C186.539 61.9319 186.745 62.5239 186.862 63.0242C185.928 63.3621 187.313 63.7813 184.574 63.1897C183.94 63.0526 183.54 62.955 182.985 62.775L180.025 61.6097C180.089 61.3322 180.135 61.2616 180.143 60.9025ZM188.38 19.6465H188.831C189.37 19.7508 189.707 20.2062 189.99 20.2899C190.709 20.503 194.333 20.4233 198.451 22.2022C200.244 22.9771 199.337 22.2397 200.417 22.2397C201.639 22.2397 202.067 22.96 202.067 24.1257C202.304 24.2843 202.405 24.3925 202.68 24.5741C203.696 25.2456 205.308 26.8585 206.054 27.8012L206.949 28.9094C208.73 31.2992 207.418 30.1518 208.828 30.8028C209.994 31.3413 209.258 32.6321 209.258 32.7305C209.258 32.7385 211.497 37.9942 211.497 41.8069C212.099 42.1254 212.461 42.6084 212.558 43.1174V43.6703C212.479 44.0826 212.22 44.4794 211.767 44.7876C211.181 45.1859 211.319 46.9477 210.835 48.6887C210.362 50.3899 210.527 49.5 210.949 50.3701C211.447 51.3951 210.65 52.7692 209.258 52.7692C209.143 53.2633 208.893 53.5809 208.672 53.9518C207.715 55.5624 207.588 55.6852 206.461 57.0454C206.26 57.2883 206.28 57.332 206.048 57.5753L204.499 59.0909C204.473 59.1131 204.397 59.1765 204.371 59.1986C203.955 59.5475 203.224 60.3109 202.775 60.431C202.775 61.4119 202.849 62.1983 201.953 62.6741C201.11 63.1213 200.44 62.7273 199.828 62.317C199.807 62.3353 199.778 62.361 199.764 62.3712C199.75 62.3813 199.718 62.4133 199.7 62.4253C199.676 62.4423 199.585 62.4979 199.555 62.5157C198.709 63.0113 196.137 63.8853 195.066 64.1559C193.161 64.6373 191.444 64.7923 189.101 64.7923C189.03 65.059 188.89 65.2528 188.686 65.438C188.522 65.5863 188.265 65.6962 187.976 65.7353H187.515C187.076 65.6748 186.638 65.4332 186.386 64.914C186.303 64.7422 186.295 64.7129 186.272 64.4387C185.536 64.4223 183.462 63.862 182.719 63.6304L179.553 62.4348C179.544 62.4348 177.078 63.5413 177.078 61.0204C176.731 60.8367 176.443 60.65 176.133 60.4325L173.747 58.5759C172.986 57.8919 171.651 56.4712 171.066 55.5981C169.171 56.0398 168.294 54.3872 169.298 52.887C168.604 51.5744 168.034 50.0617 167.624 48.4323C166.843 45.3331 166.886 43.5158 167.059 40.3924C166.755 40.2465 165.88 39.9504 165.88 38.9779C165.88 37.7301 166.333 37.2098 167.648 37.2098C168.418 33.9035 169.749 31.3002 171.656 28.7228L173.542 26.4832C172.407 24.3394 174.176 23.011 176.017 24.2436C176.464 24.0069 176.775 23.7284 177.218 23.4403L180.393 21.7827C182.466 21.0199 184.864 20.2359 187.569 20.2359C187.659 19.8984 187.65 19.939 187.951 19.7926C188.105 19.7176 188.247 19.6709 188.38 19.6465ZM199.592 61.6097L194.996 63.2609C193.264 63.6908 191.401 63.8493 189.219 63.8493L198.885 55.2445C199.231 55.3253 199.244 55.3624 199.71 55.3624L200.299 59.6059C200.299 59.8882 199.247 60.1281 199.592 61.6097ZM188.865 63.1421C188.43 62.8506 188.456 62.6877 187.687 62.6706C187.589 62.2521 187.313 61.6659 187.133 61.2201C186.946 60.7555 186.669 60.2422 186.626 59.7237C187.262 59.5754 187.509 59.2658 187.569 58.545C188.992 58.4266 191.23 57.7284 192.536 57.2652C193.149 57.0479 196.558 55.6446 197.117 55.5981L188.865 63.1421ZM172.009 53.9479L175.546 53.2406C175.96 53.5183 176.133 53.7121 176.842 53.7121C176.96 54.2199 177.092 54.5861 177.22 55.1022C177.452 56.0338 178.195 58.867 178.257 59.6059C177.133 60.2006 177.625 60.3746 175.85 59.0661L172.448 55.7488C172.105 55.3341 172.09 55.2205 171.774 55.0088C172.008 54.566 172.009 54.6218 172.009 53.9479ZM177.314 53.3585L177.573 53.1464C179.318 54.042 184.618 57.8602 184.976 57.9556C184.604 58.729 185.573 58.5252 182.721 59.4732L179.789 60.3131C179.623 59.6921 179.507 60.0203 179.225 59.6982C179.052 59.5001 178.069 55.05 177.314 53.3585ZM198.177 54.3015C196.554 54.3377 192.169 56.5862 190.444 57.1767C189.453 57.516 188.612 57.7125 187.569 57.9556C187.835 57.5577 188.185 57.2764 188.541 56.9243L193.574 49.8156C193.902 49.3405 193.743 49.6071 194.26 49.4411C194.569 49.3418 194.577 49.1983 194.877 48.9972C195.953 49.7177 198.223 52.6925 198.649 53.0049C198.382 53.4033 198.192 53.638 198.177 54.3015ZM202.303 59.8416C200.797 59.0447 201.57 60.0693 200.904 57.8218C200.635 56.9128 200.553 55.9004 200.181 55.1266C200.646 54.8151 200.872 54.5875 200.889 53.83C202.461 53.83 203.546 53.5194 204.849 53.1935L207.654 52.4548C208.195 52.2855 208.03 52.2642 208.432 52.5334L206.215 56.092C206.048 56.3028 205.948 56.3488 205.769 56.5886C205.097 57.487 203.345 59.1439 202.303 59.8416ZM177.667 51.8262C177.94 51.6818 178.079 51.6427 178.345 51.4425C179.627 50.4752 180.052 50.1017 181.557 49.3508C184.054 48.1051 182.17 48.6073 183.797 48.6436L185.919 57.2484C185.232 57.1912 182.416 55.1884 181.864 54.8202L178.941 52.9101C178.515 52.6434 178.327 52.5418 177.785 52.4155C177.775 51.9523 177.817 52.1391 177.667 51.8262ZM175.663 51.1189L175.799 51.3488L175.663 51.1189ZM207.725 51.4725C206.777 51.9274 203.443 52.6279 202.232 52.934C201.866 53.0267 201.659 53.0736 201.288 53.1716C200.249 53.4456 200.309 53.2999 201.265 51.6135L202.071 50.062C202.838 48.725 204.199 46.2279 204.543 44.7537L208.079 50.058C207.777 50.6293 207.725 50.5975 207.725 51.4725ZM184.268 48.4078C184.534 48.0112 184.688 48.0923 184.74 47.4648C185.267 47.7178 186.443 47.9116 187.106 48.0453L192.3 48.8639C193.354 48.9906 193.051 48.9068 192.095 50.3407C191.018 51.9557 190.474 53.0484 189.172 54.8435C188.93 55.1771 188.73 55.3956 188.491 55.6954C188.238 56.0128 187.314 57.1142 187.215 57.4841L186.51 57.1257C186.505 55.4617 185.036 50.1264 184.268 48.4078ZM177.314 51.3547C177.055 51.2306 176.85 51.149 176.489 51.1189V43.4571C177.715 43.4571 177.051 43.2213 177.432 43.2213C177.857 43.2213 179.673 45.0739 180.051 45.4343C180.324 45.6934 180.434 45.6999 180.705 45.9591C181.996 47.1938 182.135 46.8743 182.382 47.9363C182.159 48.0546 181.901 48.1346 181.654 48.2684C178.723 49.8501 179.967 49.2725 177.855 50.8356C177.52 51.0838 177.54 51.0163 177.314 51.3547ZM190.751 38.2706C191.029 38.3353 191.099 38.3805 191.459 38.3885C191.459 39.0936 192.501 42.8265 192.759 44.9856C192.817 45.4722 193.067 46.8954 193.227 47.2291C192.969 47.6137 192.884 47.5011 192.755 48.0542C191.562 47.7763 188.576 47.4327 186.555 47.0638C185.971 46.9571 184.906 46.8325 184.504 46.6397C184.606 46.2037 186.355 43.9823 186.721 43.4344L189.485 39.8329C189.691 39.6052 189.694 39.5414 189.898 39.303C190.094 39.074 190.132 38.9833 190.311 38.7731C190.512 38.5362 190.574 38.5356 190.751 38.2706ZM199.828 52.7692C199.472 52.7692 198.815 51.9344 198.56 51.6791L196.743 49.8424C196.72 49.8167 196.659 49.7394 196.635 49.7142C195.51 48.4925 196.154 49.2136 195.222 48.4168C194.876 48.1208 195.042 48.5011 194.995 47.9363L201.242 45.343C202.912 44.504 202.875 44.3216 203.718 44.518C203.547 44.8396 203.457 45.1332 203.286 45.5008C203.116 45.866 202.972 46.2008 202.822 46.5694C202.095 48.3552 201.974 48.3513 201.319 49.6637L199.828 52.7692ZM205.368 43.2213C206.525 43.7767 209.138 43.8748 209.529 44.2468C209.75 44.4568 209.795 44.8126 210.554 44.9895C210.554 46.5606 209.774 48.9328 209.729 49.4687L208.786 49.5865L208.009 48.1237C206.811 46.1604 207.306 46.9317 206.145 45.3909C206.009 45.21 206.003 45.2328 205.872 45.0746C205.712 44.8813 205.761 44.9061 205.625 44.7321C205.437 44.4908 205.254 44.3247 205.014 44.1643C205.231 43.8404 205.325 43.7371 205.368 43.2213ZM167.884 42.7498L168.002 40.2745C168.504 40.4087 168.488 40.6904 169.024 41.6096L174.933 51.4959C175.151 51.8168 175.298 51.9001 175.31 52.4155L171.891 53.1228C171.088 52.585 171.433 52.4155 170.123 52.4155C170.084 51.9366 169.922 51.7889 169.728 51.3964C169.616 51.169 169.609 51.1322 169.518 50.8995C169.43 50.6771 169.368 50.5822 169.26 50.3322C168.443 48.436 167.884 44.9933 167.884 42.7498ZM209.258 43.1035C207.877 43.1035 206.74 42.632 205.25 42.632C205.157 42.2832 205.202 42.4409 205.014 42.1605C205.218 41.7746 205.27 41.5049 205.449 41.0629L206.627 37.6443C206.935 36.8806 207.213 36.1647 207.473 35.4252C207.635 34.9645 208.157 33.567 208.197 33.0841H208.432C208.462 33.4361 208.978 34.5032 209.157 34.9533C209.967 36.9972 210.554 39.4785 210.554 41.8069C209.645 41.8825 209.558 42.4779 209.258 43.1035ZM175.663 51.1189L169.133 40.4396C168.975 40.2045 168.398 39.5808 168.948 39.4684C169.071 39.4433 170.018 39.8546 170.225 39.9368C171.237 40.3379 174.554 41.8716 175.192 41.9247C175.192 42.822 175.347 43.0085 176.017 43.4571C175.779 43.9541 175.702 46.3717 175.668 47.2334C175.64 47.9168 175.54 47.6382 175.542 49.1183C175.544 49.8161 175.663 50.2743 175.663 51.1189ZM168.945 38.5064C168.945 38.139 169.529 37.9928 170.312 37.516L173.101 35.4719C173.394 35.1801 173.463 35.1802 173.747 34.9395C174.085 34.6527 174.024 34.5037 174.485 34.3808C174.83 35.0338 174.968 36.7673 175.102 37.6536C175.275 38.8025 175.674 39.7783 175.899 40.746L175.401 41.1913C174.97 40.9753 174.389 40.7759 173.846 40.5594L170.612 39.1968C170.097 39.0175 168.945 38.7155 168.945 38.5064ZM192.166 38.2706L192.611 37.7729L199.907 42.1994C200.735 42.6354 201.612 43.2137 202.657 43.4571C202.561 43.8143 202.667 43.6761 202.328 43.8356L194.523 47.4648C194.196 47.1799 194.216 47.3379 194.081 46.493C194.004 46.0123 193.97 45.7491 193.865 45.2944L192.166 38.2706ZM182.5 46.4039L180.881 44.9585C180.312 44.446 178.453 42.7789 177.903 42.632C177.911 42.2729 177.956 42.2022 178.021 41.9247C179.595 41.8897 184.529 39.7082 186.462 39.0496L190.28 37.5634C190.118 37.8045 190.056 37.8487 189.837 38.0634C189.563 38.3327 189.575 38.3719 189.358 38.6456L186.135 42.8487C185.939 43.1107 185.849 43.1988 185.661 43.4356C185.506 43.6308 185.384 43.8629 185.231 44.0665C185.07 44.2813 184.944 44.4607 184.768 44.6639C184.487 44.9866 184.565 44.9196 184.339 45.2955C184.231 45.4746 184.012 45.8327 183.92 45.9468C183.54 46.4216 183.98 45.9538 183.283 46.1169C182.931 46.1991 182.763 46.4039 182.5 46.4039ZM193.698 37.3276C194.198 37.3165 195.387 36.9475 195.857 36.775C196.579 36.5096 197.276 36.3534 197.978 36.0678C198.999 35.6526 200.032 35.3419 201.006 34.8523C202.296 34.2043 201.825 34.3599 202.421 34.4986C202.773 35.232 203.37 40.6961 203.482 42.0426C203.098 42.1451 202.995 42.2482 202.892 42.632C200.478 41.3542 199.768 41.3351 197.117 39.5672L195.566 38.5242C195.449 38.4368 195.441 38.4127 195.292 38.3268L193.698 37.3276ZM177.667 41.2175C177.708 40.7229 177.687 40.9466 177.97 40.5769L181.888 35.1832C182.982 33.5461 182.935 33.6623 183.831 31.94C184.329 30.9844 184.791 31.5635 185.911 32.5028C185.929 32.5184 185.955 32.5419 185.973 32.5577L190.516 36.6204C188.938 36.9878 187.88 37.4151 186.508 38.0354C186.247 38.1538 186.052 38.202 185.759 38.3471C184.425 39.0091 182.4 39.6876 181.004 40.193L179.42 40.7304C178.982 40.8951 178.174 41.2062 177.667 41.2175ZM204.543 41.9247H204.307C204.307 39.3351 203.128 34.9427 203.128 34.4986C203.682 34.3507 203.714 34.0078 203.953 33.5556C204.851 33.5556 206.488 33.0542 207.372 32.8484C207.334 33.304 204.634 40.8262 204.543 41.9247ZM192.637 36.8561C192.532 36.6171 192.748 36.5157 193.011 36.169L195.796 31.9991C196.55 30.8341 196.541 31.9201 197.234 30.6088L201.832 33.0841C201.611 33.5444 201.938 33.4182 200.968 33.8713L197.487 35.3406C196.124 35.8803 195.104 36.1007 193.749 36.5529C193.456 36.6506 193.047 36.914 192.688 36.8779C192.68 36.8771 192.654 36.8639 192.637 36.8561ZM173.66 33.9093L170.143 36.7574C168.252 38.1808 168.008 38.4289 169.225 34.7788C169.374 34.3301 169.493 34.0166 169.635 33.6563C169.814 33.1983 169.961 32.9698 170.14 32.5111C170.423 31.7836 170.909 31.0268 171.298 30.3691C171.709 29.6756 172.098 29.1089 172.58 28.4679C172.861 28.0939 172.998 27.907 173.335 27.5731C173.635 27.2757 173.81 26.954 174.249 26.8368C174.512 27.3843 174.367 28.5582 174.367 29.3122C174.366 30.3183 174.485 30.8482 174.485 31.7875C174.038 31.8917 173.787 32.1064 173.595 32.5506C173.354 33.107 173.533 33.3653 173.66 33.9093ZM177.196 40.6281H176.724L175.734 35.9604C175.606 35.3678 175.441 34.9445 175.31 34.3808C175.899 34.2234 176.238 33.7536 176.253 33.0841C178.722 33.0841 180.908 32.0201 182.624 31.4206C182.799 31.3595 183.046 31.1392 183.022 31.5065C183.02 31.5397 181.997 33.238 181.887 33.4145L180.19 36.0784C179.812 36.5967 177.303 40.2272 177.196 40.6281ZM184.858 30.7267L188.516 30.4863C189.106 30.4955 189.096 30.6043 189.686 30.6135C191.443 30.6409 193.233 30.6088 194.995 30.6088C195.13 31.1872 195.135 31.0784 195.584 31.316L194.169 33.0833C193.788 33.5966 192.051 35.6945 191.93 36.1489C191.278 35.836 191.422 36.3117 190.837 35.7093L187.944 33.1805C187.724 33.008 187.711 33.0454 187.478 32.8213C187.33 32.6786 187.281 32.6004 187.119 32.4733L184.858 30.7267ZM199.474 25.1866C199.993 25.1982 200.025 25.3045 200.653 25.3045L200.885 27.9014C200.932 29.2681 201.295 30.6157 201.596 31.9054C200.788 31.4781 199.993 31.1229 199.141 30.7056C198.72 30.4994 198.354 30.3671 197.892 30.1866L197.181 29.8374C197.164 29.8199 197.144 29.7907 197.128 29.7721C196.94 29.5533 197.102 29.5529 196.763 29.4301L199.474 25.1866ZM194.995 29.9015C193.996 29.9015 193.442 29.7833 192.402 29.7837L188.392 29.7851C187.573 29.7888 187.096 29.5604 185.8 29.6656C184.112 29.8028 184.622 30.0226 185.763 27.8597C185.938 27.5265 186.017 27.3259 186.192 26.9927C186.82 25.8014 188.247 23.4446 188.276 22.1219C189.167 22.1219 188.935 22.0472 189.455 22.004L190.162 22.9471C190.427 23.3076 190.67 23.456 190.94 23.8195C191.303 24.3085 192.709 25.6145 193.345 26.4832L194.827 28.3009C195.108 28.6836 195.46 28.8472 195.584 29.3122C195.2 29.4147 195.097 29.5178 194.995 29.9015ZM174.956 26.9547C175.772 26.8868 176.019 26.4185 176.371 25.8938C177.426 26.1397 179.372 27.2751 180.293 27.9835C180.569 28.1962 180.777 28.3072 181.054 28.519C181.566 28.9101 181.983 29.2018 182.5 29.5479C182.457 30.0672 182.382 29.8355 182.382 30.7267C182.041 30.7551 181.933 30.8151 181.631 30.9184L179.283 31.6347C178.31 31.981 177.124 32.3822 176.135 32.6126C176.015 32.1623 175.76 31.9078 175.31 31.7875L174.956 26.9547ZM207.254 31.0803C207.004 32.1529 206.993 32.0531 205.973 32.3924C205.406 32.5808 204.488 32.8484 203.718 32.8484C203.465 32.7716 203.819 32.6477 202.657 32.3769L201.828 28.0194C201.377 24.2554 200.365 24.0897 203.698 26.7383C203.955 26.9425 203.787 26.7379 204.022 27.0035L206.161 29.4624C206.575 30.0088 206.937 30.4812 207.254 31.0803ZM183.207 29.0764C180.881 27.5186 179.645 26.05 176.812 25.2164C176.272 25.0575 176.672 25.3627 176.371 24.9508L178.068 23.9374C178.318 23.7855 178.431 23.7587 178.681 23.6068C179.534 23.0875 180.195 22.8305 181.167 22.4386C182.653 21.8392 185.319 21.1789 187.333 21.1789C187.766 21.9967 187.89 21.7205 186.824 23.9698L185.848 25.9413C185.648 26.2686 185.507 26.5471 185.333 26.8407L184.194 28.7761C183.884 29.3327 184.37 28.8057 183.207 29.0764ZM190.162 21.2967C192 21.2967 195.118 22.0373 196.896 22.6958C197.254 22.8284 197.538 22.9281 197.841 23.0476C198.259 23.2123 198.419 23.3797 198.885 23.4185C198.885 24.1467 198.99 24.3639 199.238 24.833C198.462 25.3529 196.46 28.2773 196.174 28.4871C194.38 25.8081 192.798 24.8465 191.213 22.9564L191.105 22.8291C190.386 21.9724 189.306 21.2967 190.162 21.2967Z" fill="white"/>
<path fill-rule="evenodd" clip-rule="evenodd" d="M189.575 74.8427C186.591 74.8427 179.362 73.1402 177.298 72.2409C172.96 70.3512 171.74 69.2187 168.203 66.4571C157.321 57.9609 155.124 39.4571 161.253 28.1415C170.787 10.54 195.528 4.36854 213.006 22.5294C221.088 30.9272 222.938 45.82 217.589 56.4708C212.326 66.9505 201.967 74.8427 189.575 74.8427ZM146.651 46.1331C146.651 71.4808 127.483 63.4507 143.188 73.9675L140.527 79.2005C144.661 86.9443 137.732 81.1419 144.063 90.5967L143.188 94.9728C143.188 104.105 155.433 101.893 163.274 101.019C174.46 99.7707 177.223 101.647 178.197 113.352H222.833C221.103 105.928 213.226 91.7535 220.197 76.5824C228.167 59.2353 237.97 40.2283 225.8 20.5292C211.506 -3.18032 177.324 -5.61497 157.832 13.3429C151.215 20.6174 146.2 31.3205 146.167 40.7117C146.15 41.9256 146.649 45.6516 146.651 46.1331Z" fill="white"/>
<path d="M27.2253 165.637H11.2249L8.1725 171.918H0L15.3604 142.609H23.2375L38.6471 171.918H30.2776L27.2253 165.637ZM24.7144 160.487L19.2497 149.266L13.7849 160.487H24.7144Z" fill="white"/>
<path d="M73.4806 142.609L58.5633 171.918H50.6862L35.8182 142.609H44.4338L54.9202 163.544L65.5543 142.609H73.4806Z" fill="white"/>
<path d="M97.9001 165.637H81.8997L78.8473 171.918H70.6748L86.0351 142.609H93.9123L109.322 171.918H100.952L97.9001 165.637ZM95.3892 160.487L89.9245 149.266L84.4597 160.487H95.3892Z" fill="white"/>
<path d="M112.897 142.609H128.553C132.295 142.609 135.593 143.223 138.449 144.451C141.337 145.651 143.569 147.354 145.144 149.559C146.752 151.764 147.557 154.332 147.557 157.263C147.557 160.194 146.752 162.762 145.144 164.967C143.569 167.172 141.337 168.889 138.449 170.117C135.593 171.317 132.295 171.918 128.553 171.918H112.897V142.609ZM128.159 166.349C131.605 166.349 134.346 165.539 136.381 163.921C138.449 162.274 139.483 160.055 139.483 157.263C139.483 154.472 138.449 152.267 136.381 150.648C134.346 149.001 131.605 148.178 128.159 148.178H120.873V166.349H128.159Z" fill="white"/>
<path d="M175.787 165.637H159.786L156.734 171.918H148.561L163.922 142.609H171.799L187.208 171.918H178.839L175.787 165.637ZM173.276 160.487L167.811 149.266L162.346 160.487H173.276Z" fill="white"/>
<path d="M237.94 171.918L237.891 146.838L223.466 168.024H222.235L207.81 146.921V171.918H205.348V142.609H207.465L222.875 165.26L238.285 142.609H240.352L240.402 171.918H237.94Z" fill="white"/>
<path d="M276.196 169.992V171.918H252.417V142.609H275.457V144.535H254.928V156.091H273.291V157.975H254.928V169.992H276.196Z" fill="white"/>
<path d="M285.35 142.609H298.988C302.565 142.609 305.732 143.237 308.489 144.493C311.279 145.749 313.445 147.494 314.988 149.727C316.531 151.932 317.302 154.444 317.302 157.263C317.302 160.082 316.531 162.609 314.988 164.842C313.445 167.047 311.279 168.777 308.489 170.033C305.732 171.29 302.565 171.918 298.988 171.918H285.35V142.609ZM298.791 169.992C301.974 169.992 304.78 169.461 307.209 168.401C309.638 167.312 311.509 165.805 312.822 163.879C314.135 161.953 314.791 159.748 314.791 157.263C314.791 154.779 314.135 152.574 312.822 150.648C311.509 148.722 309.638 147.229 307.209 146.168C304.78 145.079 301.974 144.535 298.791 144.535H287.861V169.992H298.791Z" fill="white"/>
<path d="M326.024 142.609H328.535V171.918H326.024V142.609Z" fill="white"/>
<path d="M361.861 163.669H341.873L337.492 171.918H334.784L350.637 142.609H353.147L369 171.918H366.292L361.861 163.669ZM360.926 161.869L351.867 144.954L342.858 161.869H360.926Z" fill="white"/>
<path d="M77.1753 216.811H61.1749L58.1226 223.092H49.95L65.3104 193.783H73.1875L88.5971 223.092H80.2277L77.1753 216.811ZM74.6645 211.661L69.1997 200.44L63.735 211.661H74.6645Z" fill="white"/>
<path d="M108.185 223.594C104.673 223.594 101.489 222.952 98.6335 221.668C95.8109 220.356 93.579 218.556 91.938 216.267C90.3297 213.95 89.5256 211.34 89.5256 208.437C89.5256 205.534 90.3297 202.938 91.938 200.649C93.579 198.333 95.8109 196.532 98.6335 195.248C101.489 193.936 104.689 193.28 108.234 193.28C111.22 193.28 113.912 193.727 116.308 194.62C118.737 195.513 120.771 196.797 122.413 198.472L117.292 202.492C114.962 200.203 112.074 199.058 108.628 199.058C106.494 199.058 104.591 199.463 102.917 200.273C101.243 201.054 99.93 202.157 98.9781 203.58C98.0592 205.004 97.5997 206.623 97.5997 208.437C97.5997 210.252 98.0592 211.871 98.9781 213.294C99.93 214.718 101.243 215.834 102.917 216.644C104.591 217.425 106.494 217.816 108.628 217.816C112.074 217.816 114.962 216.658 117.292 214.341L122.413 218.36C120.771 220.063 118.737 221.361 116.308 222.254C113.879 223.147 111.171 223.594 108.185 223.594Z" fill="white"/>
<path d="M149.821 216.811H133.821L130.769 223.092H122.596L137.956 193.783H145.834L161.243 223.092H152.874L149.821 216.811ZM147.31 211.661L141.846 200.44L136.381 211.661H147.31Z" fill="white"/>
<path d="M164.819 193.783H180.474C184.216 193.783 187.515 194.397 190.37 195.625C193.258 196.825 195.49 198.528 197.065 200.733C198.674 202.938 199.478 205.506 199.478 208.437C199.478 211.368 198.674 213.936 197.065 216.141C195.49 218.346 193.258 220.063 190.37 221.291C187.515 222.491 184.216 223.092 180.474 223.092H164.819V193.783ZM180.08 217.523C183.527 217.523 186.267 216.713 188.302 215.094C190.37 213.448 191.404 211.229 191.404 208.437C191.404 205.646 190.37 203.441 188.302 201.822C186.267 200.175 183.527 199.352 180.08 199.352H172.794V217.523H180.08Z" fill="white"/>
<path d="M232.176 217.649V223.092H205.493V193.783H231.536V199.226H213.419V205.59H229.419V210.866H213.419V217.649H232.176Z" fill="white"/>
<path d="M269.883 223.092L269.834 205.506L259.692 219.993H256.098L246.006 205.883V223.092H238.522V193.783H245.119L258.018 211.996L270.72 193.783H277.268L277.366 223.092H269.883Z" fill="white"/>
<path d="M302.085 212.708V223.092H294.109V212.624L280.767 193.783H289.235L298.441 206.804L307.648 193.783H315.476L302.085 212.708Z" fill="white"/>
</svg>
