<svg width="640" height="100" viewBox="0 0 640 100" fill="none" xmlns="http://www.w3.org/2000/svg">
<path fill-rule="evenodd" clip-rule="evenodd" d="M38.3277 53.4274C39.1537 53.3587 39.9181 53.0856 40.6302 52.9025C41.4664 52.6874 42.1372 52.5383 42.8311 52.1714C43.0738 52.3339 43.1709 52.4527 43.5642 52.4854C43.6062 52.9903 43.7713 53.4611 43.8988 53.9303C44.0105 54.3414 44.1937 54.8671 44.2973 55.3114C43.4679 55.6114 44.698 55.9836 42.2651 55.4583C41.7016 55.3366 41.3461 55.2499 40.8531 55.0901L38.2229 54.0554C38.2804 53.809 38.3205 53.7462 38.3277 53.4274ZM45.6467 16.7944H46.0474C46.5265 16.8871 46.8259 17.2914 47.077 17.3658C47.7158 17.555 50.9355 17.4842 54.5942 19.0638C56.1878 19.7518 55.3816 19.0971 56.3413 19.0971C57.4267 19.0971 57.8075 19.7366 57.8075 20.7717C58.018 20.9126 58.1074 21.0086 58.3517 21.1699C59.2549 21.7662 60.6872 23.1983 61.3494 24.0353L62.1452 25.0194C63.7276 27.1414 62.5612 26.1225 63.8143 26.7006C64.8507 27.1787 64.1961 28.3249 64.1961 28.4123C64.1961 28.4194 66.186 33.0862 66.186 36.4716C66.7209 36.7544 67.0427 37.1833 67.1285 37.6352V38.1262C67.0581 38.4923 66.828 38.8446 66.4255 39.1183C65.9054 39.472 66.0276 41.0363 65.5977 42.5822C65.1775 44.0928 65.3237 43.3026 65.6993 44.0752C66.1416 44.9854 65.4334 46.2055 64.1961 46.2055C64.0938 46.6442 63.8718 46.9262 63.6759 47.2556C62.8257 48.6857 62.7125 48.7947 61.7117 50.0025C61.5329 50.2182 61.5505 50.257 61.3447 50.4731L59.9682 51.8188C59.9449 51.8385 59.8779 51.8948 59.8545 51.9144C59.4848 52.2242 58.8354 52.9021 58.4359 53.0087C58.4359 53.8797 58.5022 54.578 57.7059 55.0005C56.9572 55.3976 56.3621 55.0477 55.8176 54.6834C55.799 54.6996 55.7732 54.7225 55.7611 54.7315C55.7489 54.7405 55.7199 54.7689 55.7045 54.7796C55.6827 54.7946 55.6021 54.8441 55.5753 54.8598C54.8238 55.2999 52.5382 56.0759 51.5867 56.3163C49.8944 56.7437 48.3688 56.8813 46.2872 56.8813C46.2239 57.1181 46.0995 57.2902 45.9182 57.4546C45.773 57.5863 45.5445 57.6839 45.2879 57.7187H44.8777C44.4879 57.6649 44.0987 57.4504 43.875 56.9894C43.801 56.8368 43.7939 56.8108 43.7736 56.5673C43.1194 56.5528 41.2765 56.0553 40.6168 55.8496L37.804 54.788C37.7959 54.788 35.6047 55.7705 35.6047 53.532C35.2963 53.369 35.0404 53.2032 34.7655 53.01L32.6447 51.3615C31.9687 50.7542 30.7828 49.4927 30.2634 48.7174C28.5791 49.1096 27.7999 47.6422 28.6925 46.3101C28.0754 45.1446 27.5692 43.8014 27.2045 42.3545C26.5108 39.6027 26.5489 37.989 26.7026 35.2156C26.4325 35.0861 25.6553 34.8232 25.6553 33.9596C25.6553 32.8517 26.0582 32.3896 27.2262 32.3896C27.9106 29.4539 29.0933 27.1423 30.7871 24.8537L32.4628 22.865C31.4549 20.9615 33.0267 19.782 34.6621 20.8764C35.0596 20.6662 35.3357 20.419 35.7288 20.1631L38.55 18.6912C40.3923 18.014 42.5229 17.3178 44.9257 17.3178C45.0057 17.0181 44.9979 17.0542 45.265 16.9242C45.4018 16.8576 45.5287 16.8161 45.6467 16.7944ZM55.6082 54.0554L51.5245 55.5215C49.9855 55.9033 48.331 56.044 46.3919 56.044L54.9798 48.4034C55.2879 48.4752 55.2994 48.5081 55.7129 48.5081L56.2366 52.2761C56.2366 52.5267 55.3015 52.7398 55.6082 54.0554ZM46.0777 55.416C45.6909 55.1572 45.7144 55.0126 45.0304 54.9974C44.9438 54.6257 44.6986 54.1053 44.5388 53.7094C44.3722 53.2969 44.1262 52.8411 44.0878 52.3807C44.6534 52.249 44.8724 51.9741 44.9257 51.3341C46.1903 51.2289 48.1788 50.609 49.3393 50.1977C49.8837 50.0047 52.9124 48.7587 53.4088 48.7174L46.0777 55.416ZM31.1013 47.2521L34.2432 46.6241C34.6116 46.8706 34.765 47.0428 35.3952 47.0428C35.5003 47.4936 35.6169 47.8188 35.7311 48.2771C35.9372 49.1043 36.5974 51.62 36.652 52.2761C35.6534 52.8041 36.0903 52.9587 34.5133 51.7968L31.4911 48.8512C31.1863 48.4829 31.1727 48.3821 30.8918 48.1941C31.1 47.8009 31.1013 47.8505 31.1013 47.2521ZM35.8141 46.7288L36.0445 46.5404C37.5952 47.3357 42.3042 50.7261 42.6216 50.8107C42.2919 51.4975 43.1524 51.3165 40.6186 52.1582L38.0135 52.904C37.8661 52.3527 37.7631 52.644 37.5125 52.3581C37.3584 52.1822 36.4857 48.2307 35.8141 46.7288ZM54.3514 47.5661C52.9092 47.5982 49.0133 49.5947 47.4802 50.1191C46.5994 50.4203 45.8528 50.5949 44.9257 50.8107C45.1624 50.4574 45.4733 50.2076 45.7898 49.895L50.261 43.5829C50.5523 43.161 50.4114 43.3977 50.8708 43.2503C51.1456 43.1622 51.1522 43.0347 51.419 42.8562C52.375 43.4959 54.3915 46.1374 54.7703 46.4148C54.5333 46.7685 54.3646 46.9769 54.3514 47.5661ZM58.017 52.4854C56.6788 51.7778 57.3658 52.6876 56.7744 50.6919C56.5352 49.8848 56.4617 48.9858 56.1318 48.2988C56.5451 48.0222 56.7452 47.82 56.7602 47.1474C58.1574 47.1474 59.1212 46.8716 60.2792 46.5823L62.7715 45.9263C63.2521 45.776 63.1057 45.7571 63.463 45.9961L61.493 49.156C61.344 49.3431 61.2557 49.384 61.0963 49.5969C60.4992 50.3947 58.9428 51.8658 58.017 52.4854ZM36.1283 45.3681C36.3707 45.2399 36.4941 45.2052 36.73 45.0275C37.8697 44.1686 38.2475 43.8369 39.5844 43.1701C41.8025 42.064 40.1292 42.51 41.5743 42.5422L43.4594 50.1828C42.8493 50.132 40.3475 48.3536 39.8567 48.0266L37.2598 46.3306C36.8818 46.0938 36.7145 46.0035 36.2331 45.8915C36.2239 45.4801 36.2617 45.646 36.1283 45.3681ZM34.3479 44.7401L34.4683 44.9442L34.3479 44.7401ZM62.8346 45.0541C61.9924 45.458 59.0302 46.08 57.954 46.3519C57.6283 46.4341 57.445 46.4758 57.1149 46.5628C56.192 46.8061 56.2456 46.6767 57.0949 45.1793L57.811 43.8016C58.4924 42.6145 59.7017 40.3972 60.0069 39.0882L63.1488 43.7981C62.8802 44.3054 62.8346 44.2772 62.8346 45.0541ZM41.9932 42.3328C42.2292 41.9806 42.3658 42.0527 42.4121 41.4955C42.8807 41.7202 43.9256 41.8922 44.5146 42.0109L49.1296 42.7378C50.0654 42.8503 49.7964 42.7759 48.9471 44.0491C47.9904 45.4832 47.5067 46.4534 46.3498 48.0473C46.1348 48.3436 45.9571 48.5376 45.7452 48.8038C45.5207 49.0856 44.6992 50.0636 44.6115 50.3921L43.9853 50.0738C43.9807 48.5963 42.6756 43.8589 41.9932 42.3328ZM35.8141 44.9495C35.5845 44.8393 35.4021 44.7668 35.081 44.7401V37.9369C36.1705 37.9369 35.5805 37.7275 35.9189 37.7275C36.2964 37.7275 37.9102 39.3725 38.2466 39.6925C38.4884 39.9226 38.5868 39.9283 38.8276 40.1585C39.9743 41.2548 40.0977 40.9711 40.3175 41.9142C40.1189 42.0192 39.8903 42.0902 39.67 42.209C37.0665 43.6135 38.1712 43.1007 36.2955 44.4886C35.9976 44.709 36.0154 44.649 35.8141 44.9495ZM47.7534 33.3316C48 33.389 48.0627 33.4291 48.3818 33.4363C48.3818 34.0623 49.3078 37.3769 49.5373 39.2941C49.589 39.7262 49.8105 40.9899 49.9527 41.2862C49.7239 41.6277 49.6483 41.5277 49.5338 42.0188C48.4739 41.7721 45.8202 41.467 44.0252 41.1394C43.5058 41.0447 42.5598 40.9341 42.2027 40.7628C42.2929 40.3757 43.8472 38.4032 44.1724 37.9167L46.6279 34.7188C46.8111 34.5166 46.8139 34.4599 46.995 34.2483C47.1691 34.0449 47.2034 33.9644 47.362 33.7778C47.5408 33.5674 47.5958 33.5669 47.7534 33.3316ZM55.8176 46.2055C55.5015 46.2055 54.9183 45.4642 54.6915 45.2376L53.0767 43.6067C53.0566 43.5839 53.0019 43.5152 52.9812 43.4928C51.981 42.4081 52.5533 43.0483 51.7252 42.3408C51.4177 42.078 51.5655 42.4157 51.5237 41.9142L57.0744 39.6115C58.5578 38.8665 58.5251 38.7045 59.2738 38.8789C59.1225 39.1644 59.0423 39.4252 58.8903 39.7516C58.7393 40.0759 58.6116 40.3731 58.4781 40.7004C57.8317 42.2862 57.725 42.2826 57.1429 43.4479L55.8176 46.2055ZM60.74 37.7275C61.7683 38.2206 64.0895 38.3078 64.437 38.6381C64.6331 38.8246 64.6735 39.1405 65.3481 39.2975C65.3481 40.6926 64.6546 42.799 64.615 43.2748L63.7772 43.3795L63.087 42.0806C62.0219 40.3373 62.4617 41.0221 61.4306 39.654C61.3095 39.4933 61.3044 39.5136 61.188 39.3731C61.0458 39.2015 61.0892 39.2235 60.9686 39.069C60.8013 38.8547 60.6386 38.7073 60.4258 38.5649C60.6185 38.2772 60.7018 38.1856 60.74 37.7275ZM27.4357 37.3089L27.5404 35.1109C27.9871 35.2301 27.9724 35.4802 28.4488 36.2964L33.6987 45.0749C33.8928 45.3598 34.0235 45.4338 34.0337 45.8915L30.9965 46.5194C30.283 46.0419 30.589 45.8915 29.4256 45.8915C29.3902 45.4662 29.2464 45.335 29.0743 44.9865C28.9746 44.7846 28.9685 44.752 28.8874 44.5453C28.8099 44.3479 28.7541 44.2636 28.6584 44.0415C27.9327 42.3578 27.4357 39.301 27.4357 37.3089ZM64.1961 37.6229C62.9692 37.6229 61.9591 37.2042 60.6352 37.2042C60.5525 36.8946 60.5926 37.0345 60.4258 36.7856C60.6072 36.4429 60.6528 36.2034 60.812 35.8109L61.8592 32.7755C62.1329 32.0973 62.3791 31.4616 62.6105 30.805C62.7547 30.3959 63.2178 29.1551 63.2535 28.7263H63.463C63.489 29.0388 63.9477 29.9863 64.1063 30.386C64.8263 32.2008 65.3481 34.4042 65.3481 36.4716C64.5401 36.5387 64.4628 37.0674 64.1961 37.6229ZM34.3479 44.7401L28.5458 35.2575C28.4049 35.0488 27.893 34.495 28.381 34.3951C28.4901 34.3728 29.3319 34.7381 29.5161 34.8111C30.4153 35.1672 33.3621 36.5291 33.929 36.5762C33.929 37.3729 34.0669 37.5386 34.6621 37.9369C34.4502 38.3782 34.3824 40.5249 34.3517 41.29C34.3274 41.8969 34.238 41.6495 34.2403 42.9637C34.2414 43.5833 34.3479 43.9901 34.3479 44.7401ZM28.3783 33.5409C28.3783 33.2148 28.8972 33.0849 29.5929 32.6615L32.0708 30.8465C32.3314 30.5874 32.3926 30.5874 32.645 30.3738C32.9459 30.1191 32.8917 29.9868 33.3006 29.8776C33.6076 30.4575 33.7301 31.9967 33.8488 32.7837C34.0027 33.8038 34.357 34.6703 34.5574 35.5296L34.1152 35.925C33.7318 35.7332 33.2152 35.5561 32.7333 35.3639L29.8595 34.154C29.4018 33.9947 28.3783 33.7266 28.3783 33.5409ZM49.0102 33.3316L49.4058 32.8897L55.8878 36.8201C56.6239 37.2073 57.4029 37.7208 58.3312 37.9369C58.2464 38.2541 58.3404 38.1314 58.0391 38.273L51.1048 41.4955C50.8135 41.2425 50.8317 41.3828 50.7115 40.6325C50.6432 40.2058 50.6133 39.972 50.5196 39.5683L49.0102 33.3316ZM40.4223 40.5535L38.9835 39.2701C38.4785 38.815 36.8267 37.3347 36.3378 37.2042C36.3449 36.8853 36.3851 36.8226 36.4425 36.5762C37.8409 36.5451 42.2249 34.608 43.9421 34.0233L47.3345 32.7036C47.191 32.9177 47.1352 32.957 46.9409 33.1476C46.6973 33.3867 46.7079 33.4216 46.5157 33.6646L43.652 37.3966C43.478 37.6293 43.3977 37.7076 43.2309 37.9178C43.0933 38.0911 42.9844 38.2973 42.8489 38.478C42.7059 38.6688 42.5938 38.8281 42.4371 39.0084C42.1879 39.295 42.2567 39.2355 42.0557 39.5693C41.96 39.7283 41.7653 40.0463 41.6842 40.1476C41.3464 40.5692 41.7368 40.1538 41.1174 40.2986C40.8051 40.3716 40.6558 40.5535 40.4223 40.5535ZM50.3717 32.4943C50.8156 32.4844 51.8721 32.1567 52.2894 32.0035C52.9316 31.7679 53.5509 31.6292 54.1746 31.3756C55.0813 31.0069 55.9994 30.7311 56.865 30.2963C58.0106 29.721 57.5927 29.8591 58.1217 29.9823C58.4344 30.6335 58.9647 35.4852 59.0643 36.6809C58.7233 36.7719 58.6317 36.8634 58.5406 37.2042C56.3951 36.0696 55.7649 36.0526 53.4088 34.4829L52.0315 33.5568C51.9269 33.4791 51.9202 33.4578 51.788 33.3814L50.3717 32.4943ZM36.1283 35.9482C36.1649 35.5091 36.1458 35.7077 36.397 35.3795L39.8785 30.5901C40.8505 29.1365 40.8086 29.2397 41.605 27.7104C42.047 26.8619 42.4576 27.376 43.4524 28.2101C43.4689 28.224 43.4918 28.2448 43.5083 28.2589L47.5439 31.8663C46.1426 32.1925 45.2023 32.572 43.9835 33.1227C43.7509 33.2278 43.578 33.2706 43.318 33.3995C42.1323 33.9873 40.3329 34.5898 39.0931 35.0385L37.6854 35.5157C37.296 35.662 36.5784 35.9382 36.1283 35.9482ZM60.0069 36.5762H59.7974C59.7974 34.2768 58.7501 30.3766 58.7501 29.9823C59.2423 29.8509 59.2706 29.5465 59.4832 29.145C60.2809 29.145 61.7355 28.6997 62.5204 28.517C62.4867 28.9215 60.0881 35.6008 60.0069 36.5762ZM49.4291 32.0756C49.3351 31.8634 49.5271 31.7733 49.761 31.4654L52.2353 27.7629C52.9052 26.7283 52.8971 27.6927 53.5136 26.5283L57.5981 28.7263C57.4019 29.135 57.6926 29.0229 56.8312 29.4253L53.738 30.7299C52.5268 31.2092 51.621 31.4048 50.4165 31.8064C50.1563 31.8931 49.7927 32.127 49.4739 32.0949C49.4667 32.0942 49.4438 32.0825 49.4291 32.0756ZM32.5675 29.459L29.4426 31.988C27.7628 33.2518 27.5457 33.4721 28.6271 30.231C28.7601 29.8327 28.8659 29.5543 28.9913 29.2343C29.1508 28.8277 29.2812 28.6248 29.4401 28.2175C29.6919 27.5715 30.1232 26.8995 30.4694 26.3155C30.8344 25.6997 31.1796 25.1965 31.6079 24.6273C31.8577 24.2952 31.9796 24.1293 32.2791 23.8328C32.5457 23.5688 32.7012 23.2831 33.0911 23.179C33.3245 23.6651 33.1961 24.7075 33.1959 25.377C33.1955 26.2704 33.3006 26.7409 33.3006 27.575C32.9034 27.6675 32.6804 27.8581 32.5098 28.2525C32.2961 28.7466 32.4549 28.9759 32.5675 29.459ZM35.7094 35.4249H35.2905L34.4107 31.2802C34.2969 30.754 34.1504 30.3782 34.0337 29.8776C34.5574 29.7379 34.8583 29.3208 34.8716 28.7263C37.0655 28.7263 39.0077 27.7815 40.5324 27.2491C40.6876 27.1949 40.9069 26.9993 40.886 27.3254C40.8841 27.3549 39.9748 28.8629 39.8779 29.0196L38.3698 31.385C38.0338 31.8453 35.8045 35.0689 35.7094 35.4249ZM42.5169 26.633L45.7677 26.4195C46.2916 26.4277 46.2827 26.5243 46.8067 26.5325C48.3683 26.5568 49.9586 26.5283 51.5237 26.5283C51.6434 27.0419 51.6482 26.9453 52.0473 27.1563L50.7898 28.7255C50.4516 29.1814 48.9085 31.0441 48.8007 31.4476C48.2213 31.1697 48.3497 31.5922 47.8298 31.0573L45.259 28.8118C45.0633 28.6587 45.0517 28.6919 44.845 28.4929C44.7133 28.3662 44.6698 28.2968 44.5259 28.1839L42.5169 26.633ZM55.5035 21.7137C55.9649 21.724 55.9931 21.8184 56.5508 21.8184L56.7569 24.1243C56.799 25.3378 57.1216 26.5345 57.3886 27.6797C56.6711 27.3002 55.9649 26.9848 55.208 26.6143C54.8339 26.4312 54.5085 26.3137 54.0981 26.1535L53.4659 25.8433C53.4507 25.8279 53.4332 25.8019 53.4191 25.7854C53.2523 25.5911 53.3962 25.5908 53.0947 25.4817L55.5035 21.7137ZM51.5237 25.9003C50.6364 25.9003 50.1443 25.7953 49.2196 25.7957L45.6575 25.797C44.9298 25.8003 44.5052 25.5974 43.3542 25.6908C41.8544 25.8126 42.3079 26.0078 43.321 24.0873C43.477 23.7914 43.5466 23.6133 43.7027 23.3174C44.2608 22.2596 45.5279 20.1669 45.5541 18.9924C46.3458 18.9924 46.14 18.9261 46.6014 18.8878L47.2296 19.7252C47.4655 20.0453 47.6807 20.1771 47.9208 20.4998C48.2438 20.934 49.4929 22.0937 50.0575 22.865L51.3749 24.479C51.6246 24.8189 51.937 24.9642 52.0473 25.377C51.7064 25.468 51.6148 25.5596 51.5237 25.9003ZM33.7195 23.2837C34.4443 23.2234 34.6641 22.8076 34.9763 22.3417C35.9138 22.56 37.6431 23.5682 38.4609 24.1972C38.7066 24.3861 38.8908 24.4847 39.1371 24.6727C39.5919 25.02 39.963 25.279 40.4223 25.5863C40.3839 26.0475 40.3175 25.8417 40.3175 26.633C40.0142 26.6582 39.9185 26.7116 39.65 26.8032L37.5635 27.4393C36.6994 27.7468 35.6456 28.1031 34.7668 28.3076C34.66 27.9077 34.4339 27.6818 34.0337 27.575L33.7195 23.2837ZM62.4157 26.947C62.1936 27.8994 62.1841 27.8108 61.2774 28.1121C60.7741 28.2793 59.9586 28.517 59.2738 28.517C59.0493 28.4488 59.3638 28.3387 58.3312 28.0983L57.5946 24.2291C57.1945 20.8869 56.2952 20.7398 59.2566 23.0915C59.4849 23.2729 59.3355 23.0912 59.5445 23.3271L61.4444 25.5104C61.8122 25.9955 62.134 26.415 62.4157 26.947ZM41.0507 25.1677C38.9837 23.7844 37.8855 22.4804 35.3687 21.7402C34.8889 21.5991 35.2444 21.8701 34.9763 21.5044L36.4847 20.6045C36.7065 20.4696 36.8069 20.4459 37.0287 20.3109C37.7868 19.8499 38.3738 19.6217 39.2375 19.2736C40.5582 18.7414 42.9271 18.1551 44.7162 18.1551C45.1007 18.8813 45.2109 18.636 44.2635 20.6333L43.3969 22.3838C43.2194 22.6745 43.0938 22.9218 42.9393 23.1825L41.9275 24.901C41.6514 25.3952 42.0833 24.9273 41.0507 25.1677ZM47.2297 18.2598C48.8625 18.2598 51.6327 18.9173 53.213 19.5021C53.5311 19.6198 53.783 19.7084 54.0525 19.8145C54.4239 19.9606 54.5665 20.1094 54.9798 20.1437C54.9798 20.7904 55.0735 20.9832 55.294 21.3997C54.6041 21.8614 52.8254 24.4581 52.571 24.6443C50.9771 22.2656 49.5717 21.4117 48.164 19.7334L48.0676 19.6204C47.4285 18.8597 46.469 18.2598 47.2297 18.2598Z" fill="white"/>
<path fill-rule="evenodd" clip-rule="evenodd" d="M46.7078 65.8057C44.0569 65.8057 37.634 64.2939 35.7999 63.4954C31.9462 61.8175 30.8617 60.8118 27.7191 58.3597C18.0507 50.8156 16.0988 34.3853 21.5443 24.3377C30.0149 8.70855 51.9976 3.22867 67.5263 19.3544C74.707 26.8112 76.3509 40.0351 71.5986 49.4924C66.9227 58.7978 57.7186 65.8057 46.7078 65.8057ZM8.57011 40.3132C8.57011 62.8205 -8.46036 55.6902 5.49368 65.0285L3.12929 69.6751C6.80285 76.5511 0.646059 71.399 6.27131 79.7943L5.49368 83.68C5.49368 91.7891 16.3729 89.8251 23.3401 89.0483C33.279 87.9402 35.7333 89.6067 36.5987 100H76.2576C74.7209 93.4079 67.722 80.8214 73.9152 67.3504C80.9967 51.9472 89.7067 35.0701 78.8941 17.5784C66.1937 -3.47429 35.8228 -5.63612 18.505 11.1974C12.6255 17.6567 8.16939 27.1605 8.14087 35.4993C8.12541 36.5772 8.56862 39.8856 8.57011 40.3132Z" fill="white"/>
<path d="M141.658 94.9375C136.309 94.9375 131.121 94.3531 126.095 93.1843C121.133 91.9624 117.137 90.3951 114.108 88.4825L119.425 78.7601C122.325 80.5133 125.773 81.9212 129.768 82.9838C133.764 84.0463 137.759 84.5776 141.755 84.5776C146.201 84.5776 149.488 84.0463 151.614 82.9838C153.741 81.8681 154.804 80.4071 154.804 78.6007C154.804 77.2725 154.16 76.1834 152.871 75.3334C151.647 74.4302 150.035 73.713 148.038 73.1817C146.104 72.6504 143.462 72.066 140.111 71.4285C134.956 70.419 130.735 69.4096 127.448 68.4002C124.162 67.3908 121.326 65.7704 118.942 63.539C116.622 61.3076 115.462 58.3325 115.462 54.6135C115.462 51.3727 116.525 48.4507 118.652 45.8474C120.778 43.191 123.968 41.0925 128.221 39.5518C132.539 38.0111 137.791 37.2407 143.978 37.2407C148.295 37.2407 152.517 37.6657 156.641 38.5158C160.765 39.3658 164.374 40.5878 167.467 42.1816L162.634 51.9837C156.383 49.0617 150.132 47.6006 143.881 47.6006C139.499 47.6006 136.245 48.1851 134.118 49.3539C132.056 50.5227 131.025 52.0634 131.025 53.976C131.025 55.8886 132.217 57.323 134.601 58.2793C137.05 59.1825 140.756 60.0857 145.718 60.9889C150.873 61.9983 155.094 63.0077 158.381 64.0171C161.667 65.0266 164.471 66.6204 166.791 68.7986C169.175 70.9769 170.367 73.9255 170.367 77.6444C170.367 80.8321 169.272 83.7541 167.081 86.4105C164.954 89.0138 161.732 91.0858 157.414 92.6265C153.097 94.1672 147.844 94.9375 141.658 94.9375Z" fill="white"/>
<path d="M210.357 38.197C216.35 38.197 221.538 39.0205 225.92 40.6675C230.367 42.3144 233.782 44.6521 236.166 47.6803C238.551 50.7086 239.743 54.2947 239.743 58.4387C239.743 62.5296 238.551 66.1157 236.166 69.1971C233.782 72.2254 230.367 74.563 225.92 76.21C221.538 77.8038 216.35 78.6007 210.357 78.6007H196.727V93.9812H181.068V38.197H210.357ZM209.487 68.0814C214.191 68.0814 217.768 67.2579 220.217 65.611C222.666 63.9109 223.89 61.5201 223.89 58.4387C223.89 55.3042 222.666 52.9134 220.217 51.2665C217.768 49.5664 214.191 48.7163 209.487 48.7163H196.727V68.0814H209.487Z" fill="white"/>
<path d="M292.087 82.0275H260.671L254.678 93.9812H238.631L268.791 38.197H284.257L314.513 93.9812H298.08L292.087 82.0275ZM287.157 72.2254L276.427 50.868L265.698 72.2254H287.157Z" fill="white"/>
<path d="M352.972 94.9375C346.077 94.9375 339.826 93.7156 334.219 91.2717C328.677 88.7747 324.295 85.348 321.073 80.9915C317.915 76.5819 316.336 71.6144 316.336 66.0891C316.336 60.5638 317.915 55.6229 321.073 51.2665C324.295 46.8569 328.677 43.4301 334.219 40.9862C339.826 38.4892 346.109 37.2407 353.069 37.2407C358.933 37.2407 364.218 38.0908 368.922 39.7909C373.691 41.4909 377.686 43.9348 380.908 47.1225L370.855 54.7729C366.28 50.4164 360.609 48.2382 353.842 48.2382C349.653 48.2382 345.916 49.0085 342.629 50.5492C339.342 52.0368 336.765 54.1354 334.896 56.8449C333.091 59.5544 332.189 62.6358 332.189 66.0891C332.189 69.5424 333.091 72.6238 334.896 75.3334C336.765 78.0429 339.342 80.168 342.629 81.7087C345.916 83.1963 349.653 83.9401 353.842 83.9401C360.609 83.9401 366.28 81.7353 370.855 77.3257L380.908 84.9761C377.686 88.2169 373.691 90.6873 368.922 92.3874C364.153 94.0875 358.837 94.9375 352.972 94.9375Z" fill="white"/>
<path d="M443.876 83.6213V93.9812H391.483V38.197H442.619V48.5569H407.046V60.6701H438.462V70.7112H407.046V83.6213H443.876Z" fill="white"/>
<path d="M460.105 38.197H465.035V90.3154H503.991V93.9812H460.105V38.197Z" fill="white"/>
<path d="M558.601 78.282H519.355L510.752 93.9812H505.435L536.561 38.197H541.491L572.617 93.9812H567.301L558.601 78.282ZM556.764 74.8552L538.978 42.6598L521.288 74.8552H556.764Z" fill="white"/>
<path d="M625.114 65.2125C629.947 65.9563 633.62 67.5236 636.133 69.9143C638.711 72.3051 640 75.4131 640 79.2383C640 83.9666 637.906 87.6059 633.717 90.156C629.528 92.7062 623.309 93.9812 615.06 93.9812H584.901V38.197H613.127C620.474 38.197 626.177 39.4455 630.237 41.9425C634.361 44.3864 636.423 47.8928 636.423 52.4618C636.423 55.6495 635.392 58.3325 633.33 60.5107C631.332 62.6889 628.594 64.2562 625.114 65.2125ZM589.831 41.7035V63.9374H612.934C618.863 63.9374 623.406 63.0077 626.564 61.1482C629.786 59.2356 631.397 56.4464 631.397 52.7806C631.397 49.1679 629.786 46.4318 626.564 44.5724C623.406 42.6598 618.863 41.7035 612.934 41.7035H589.831ZM615.06 90.4748C621.634 90.4748 626.596 89.5451 629.947 87.6856C633.362 85.773 635.07 82.8509 635.07 78.9195C635.07 74.988 633.362 72.0926 629.947 70.2331C626.596 68.3736 621.634 67.4439 615.06 67.4439H589.831V90.4748H615.06Z" fill="white"/>
</svg>
