<svg version="1" xmlns="http://www.w3.org/2000/svg" width="346.667" height="346.667" viewBox="0 0 260.000000 260.000000"><path d="M109 1.4C95.4 3.8 85.7 7 73.5 12.9 37.3 30.6 12.9 61.2 2.9 101.4.2 112.1-.7 134.7 1 147.3c5.7 42 32.1 79.3 69.6 98.4 18.6 9.5 32.9 13.2 53.5 14 24.1.9 42.2-2.8 62.4-12.6 44-21.5 71.6-63.6 73.2-111.8.9-23.6-2.9-41.9-12.6-61.8-17.7-36.2-48.1-60.4-88.5-70.6C148.2.2 120.3-.6 109 1.4zm55 92.8c17.8 32 39.1 70 39.7 70.8.2.2 2.5.7 5.1 1.1l4.7.6-4.3.2-4.2.1 2.9 5.8 2.9 5.8-17.8.3-17.9.2-4.1-8c-3.1-6.3-4.6-8.2-6.6-8.7-2.1-.5-27.8-.2-68.2.8-2.5 0-4.6 2.7-8.6 10.5l-2.6 5.2-18 .1H49l3-5.7c1.6-3.2 4.3-8.1 5.8-10.8 2.4-4 36.1-64.7 50.8-91.3l3.5-6.2h35.7L164 94.2zm60.9 74.4c.8.7-5.4.2-7.9-.6-1.7-.6-.9-.7 2.5-.3 2.8.3 5.2.7 5.4.9zm5.4 1.1c-.7.2-2.1.2-3 0-1-.3-.4-.5 1.2-.5 1.7 0 2.4.2 1.8.5zm5 1c-.7.2-1.9.2-2.5 0-.7-.3-.2-.5 1.2-.5s1.9.2 1.3.5zm5.4.9c-.3.3-1.2.4-1.9.1-.8-.3-.5-.6.6-.6 1.1-.1 1.7.2 1.3.5zm-206 1c-.3.3-1.2.4-1.9.1-.8-.3-.5-.6.6-.6 1.1-.1 1.7.2 1.3.5zm210 0c-.3.3-1.2.4-1.9.1-.8-.3-.5-.6.6-.6 1.1-.1 1.7.2 1.3.5zm-215 1c-.3.3-1.2.4-1.9.1-.8-.3-.5-.6.6-.6 1.1-.1 1.7.2 1.3.5zM19 176c-.8.5-2.4.9-3.5.9-1.6-.1-1.6-.2.5-.9 3.5-1.1 4.8-1.1 3 0z"/><path d="M126.8 99.2c-1.9 3.5-7 12.9-11.2 21l-7.7 14.8H152l-6.4-12.8c-3.5-7-8.4-16.4-10.9-21l-4.4-8.4-3.5 6.4zM95.2 159.5c-1.4 3.1-.2 3.2 8.2.6 5.8-1.8 5.8-1.8 2.6-2.4-6.6-1.4-9.6-.9-10.8 1.8z"/></svg>